<?xml version="1.0" encoding="utf-8"?>
<!-- Generator: Adobe Illustrator 16.0.0, SVG Export Plug-In . SVG Version: 6.00 Build 0)  -->
<!DOCTYPE svg PUBLIC "-//W3C//DTD SVG 1.1//EN" "http://www.w3.org/Graphics/SVG/1.1/DTD/svg11.dtd">
<svg version="1.1" id="Layer_1" xmlns="http://www.w3.org/2000/svg" xmlns:xlink="http://www.w3.org/1999/xlink" x="0px" y="0px"
	 width="2646.955px" height="1564.593px" viewBox="0 0 2646.955 1564.593" enable-background="new 0 0 2646.955 1564.593"
	 xml:space="preserve">
<path fill="#211915" d="M36.41,543.638c2.186,1.141,4.687,3.461,7.489,6.962l218.176,283.886c-0.53-4.547-0.887-8.979-1.058-13.268
	c-0.176-4.294-0.261-8.453-0.261-12.492V541.93h44.691v376.677h-25.767c-4.031,0-7.407-0.694-10.117-2.102
	c-2.722-1.399-5.39-3.764-8.019-7.1L43.641,625.783c0.345,4.379,0.607,8.674,0.785,12.879c0.172,4.199,0.267,8.06,0.267,11.563
	v268.382H0V541.93h26.285C30.84,541.93,34.217,542.5,36.41,543.638z"/>
<path fill="none" stroke="#8C8A89" stroke-width="0.25" d="M469.698,550.708c-0.68-0.357-1.461-1.08-2.334-2.172l-68.025-88.512
	c0.165,1.417,0.276,2.799,0.33,4.136c0.056,1.339,0.081,2.635,0.081,3.896v83.184h-13.935V433.795h8.032
	c1.258,0,2.311,0.218,3.157,0.656c0.847,0.438,1.681,1.174,2.5,2.214l67.94,88.43c-0.108-1.365-0.189-2.704-0.245-4.015
	c-0.055-1.31-0.083-2.513-0.083-3.605v-83.68h13.935v117.445h-8.195C471.436,551.241,470.383,551.063,469.698,550.708z"/>
<path fill="none" stroke="#8C8A89" stroke-width="0.25" d="M469.698,409.357c-0.68-0.357-1.461-1.08-2.334-2.172l-68.025-88.514
	c0.165,1.419,0.276,2.8,0.33,4.138c0.056,1.338,0.081,2.635,0.081,3.895v83.186h-13.935V292.444h8.032
	c1.258,0,2.311,0.218,3.157,0.655c0.847,0.437,1.681,1.175,2.5,2.215l67.94,88.43c-0.108-1.365-0.189-2.704-0.245-4.015
	c-0.055-1.31-0.083-2.515-0.083-3.605v-83.68h13.935V409.89h-8.195C471.436,409.89,470.383,409.711,469.698,409.357z"/>
<path fill="none" stroke="#8C8A89" stroke-width="0.25" d="M469.698,266.11c-0.68-0.355-1.461-1.078-2.334-2.171l-68.025-88.513
	c0.165,1.418,0.276,2.799,0.33,4.137c0.056,1.339,0.081,2.635,0.081,3.896v83.185h-13.935V149.197h8.032
	c1.258,0,2.311,0.218,3.157,0.655c0.847,0.438,1.681,1.174,2.5,2.215l67.94,88.43c-0.108-1.365-0.189-2.704-0.245-4.016
	c-0.055-1.309-0.083-2.513-0.083-3.604v-83.68h13.935v117.445h-8.195C471.436,266.643,470.383,266.464,469.698,266.11z"/>
<path fill="none" stroke="#8C8A89" stroke-width="0.25" d="M469.698,123.148c-0.68-0.355-1.461-1.08-2.334-2.17l-68.025-88.514
	c0.165,1.419,0.276,2.8,0.33,4.138c0.056,1.338,0.081,2.635,0.081,3.895v83.186h-13.935V6.238h8.032
	c1.258,0,2.311,0.215,3.157,0.654c0.847,0.437,1.681,1.173,2.5,2.213l67.94,88.43c-0.108-1.365-0.189-2.704-0.245-4.015
	c-0.055-1.31-0.083-2.514-0.083-3.605V6.238h13.935v117.444h-8.195C471.436,123.682,470.383,123.503,469.698,123.148z"/>
<path fill="none" stroke="#8C8A89" stroke-width="0.25" d="M469.698,1131.8c-0.68-0.356-1.461-1.079-2.334-2.172l-68.025-88.513
	c0.165,1.418,0.276,2.799,0.33,4.137c0.056,1.339,0.081,2.636,0.081,3.896v83.185h-13.935v-117.445h8.032
	c1.258,0,2.311,0.218,3.157,0.655c0.847,0.438,1.681,1.175,2.5,2.215l67.94,88.43c-0.108-1.364-0.189-2.704-0.245-4.015
	c-0.055-1.31-0.083-2.514-0.083-3.605v-83.68h13.935v117.445h-8.195C471.436,1132.332,470.383,1132.153,469.698,1131.8z"/>
<path fill="none" stroke="#8C8A89" stroke-width="0.25" d="M469.698,990.448c-0.68-0.356-1.461-1.079-2.334-2.171l-68.025-88.513
	c0.165,1.418,0.276,2.799,0.33,4.137c0.056,1.339,0.081,2.635,0.081,3.896v83.184h-13.935V873.536h8.032
	c1.258,0,2.311,0.217,3.157,0.655c0.847,0.438,1.681,1.174,2.5,2.214l67.94,88.431c-0.108-1.365-0.189-2.704-0.245-4.015
	c-0.055-1.31-0.083-2.514-0.083-3.605v-83.68h13.935V990.98h-8.195C471.436,990.98,470.383,990.803,469.698,990.448z"/>
<path fill="none" stroke="#8C8A89" stroke-width="0.25" d="M469.698,847.201c-0.68-0.355-1.461-1.078-2.334-2.172l-68.025-88.512
	c0.165,1.417,0.276,2.798,0.33,4.138c0.056,1.338,0.081,2.634,0.081,3.895v83.184h-13.935V730.288h8.032
	c1.258,0,2.311,0.22,3.157,0.655c0.847,0.438,1.681,1.175,2.5,2.215l67.94,88.431c-0.108-1.365-0.189-2.704-0.245-4.017
	c-0.055-1.309-0.083-2.512-0.083-3.604v-83.681h13.935v117.445h-8.195C471.436,847.733,470.383,847.556,469.698,847.201z"/>
<path fill="none" stroke="#8C8A89" stroke-width="0.25" d="M469.698,704.24c-0.68-0.356-1.461-1.081-2.334-2.171l-68.025-88.514
	c0.165,1.419,0.276,2.8,0.33,4.138c0.056,1.338,0.081,2.635,0.081,3.894v83.186h-13.935V587.329h8.032
	c1.258,0,2.311,0.215,3.157,0.654c0.847,0.437,1.681,1.174,2.5,2.214l67.94,88.431c-0.108-1.366-0.189-2.704-0.245-4.015
	c-0.055-1.312-0.083-2.515-0.083-3.607v-83.677h13.935v117.443h-8.195C471.436,704.772,470.383,704.595,469.698,704.24z"/>
<path fill="none" stroke="#8C8A89" stroke-width="0.25" d="M621.825,551.642c-0.68-0.355-1.461-1.079-2.335-2.171l-68.025-88.513
	c0.166,1.418,0.277,2.8,0.33,4.138c0.055,1.338,0.083,2.635,0.083,3.895v83.184h-13.935V434.73h8.035
	c1.255,0,2.307,0.218,3.154,0.654c0.848,0.438,1.68,1.174,2.5,2.215l67.94,88.43c-0.109-1.364-0.189-2.704-0.245-4.015
	c-0.054-1.309-0.082-2.514-0.082-3.604v-83.68h13.933v117.444h-8.194C623.562,552.174,622.509,551.997,621.825,551.642z"/>
<path fill="none" stroke="#8C8A89" stroke-width="0.25" d="M621.825,410.291c-0.68-0.355-1.461-1.079-2.335-2.171l-68.025-88.513
	c0.166,1.418,0.277,2.799,0.33,4.138c0.055,1.338,0.083,2.635,0.083,3.895v83.184h-13.935V293.378h8.035
	c1.255,0,2.307,0.219,3.154,0.655c0.848,0.438,1.68,1.174,2.5,2.215l67.94,88.43c-0.109-1.365-0.189-2.704-0.245-4.015
	c-0.054-1.31-0.082-2.514-0.082-3.604v-83.681h13.933v117.445h-8.194C623.562,410.823,622.509,410.646,621.825,410.291z"/>
<path fill="none" stroke="#8C8A89" stroke-width="0.25" d="M621.825,267.044c-0.68-0.356-1.461-1.08-2.335-2.171l-68.025-88.514
	c0.166,1.419,0.277,2.8,0.33,4.138c0.055,1.338,0.083,2.635,0.083,3.895v83.186h-13.935V150.132h8.035
	c1.255,0,2.307,0.218,3.154,0.655c0.848,0.437,1.68,1.173,2.5,2.213l67.94,88.43c-0.109-1.364-0.189-2.704-0.245-4.016
	c-0.054-1.307-0.082-2.512-0.082-3.603v-83.68h13.933v117.445h-8.194C623.562,267.577,622.509,267.398,621.825,267.044z"/>
<path fill="none" stroke="#8C8A89" stroke-width="0.25" d="M621.825,124.083c-0.68-0.355-1.461-1.08-2.335-2.171l-68.025-88.513
	c0.166,1.418,0.277,2.799,0.33,4.138c0.055,1.338,0.083,2.634,0.083,3.895v83.185h-13.935V7.171h8.035
	c1.255,0,2.307,0.215,3.154,0.654c0.848,0.438,1.68,1.174,2.5,2.215l67.94,88.43c-0.109-1.366-0.189-2.704-0.245-4.015
	c-0.054-1.311-0.082-2.514-0.082-3.606V7.171h13.933v117.444h-8.194C623.562,124.615,622.509,124.437,621.825,124.083z"/>
<path fill="none" stroke="#8C8A89" stroke-width="0.25" d="M621.825,1132.732c-0.68-0.355-1.461-1.078-2.335-2.17l-68.025-88.514
	c0.166,1.419,0.277,2.8,0.33,4.138c0.055,1.338,0.083,2.636,0.083,3.895v83.186h-13.935v-117.445h8.035
	c1.255,0,2.307,0.218,3.154,0.655c0.848,0.437,1.68,1.173,2.5,2.214l67.94,88.43c-0.109-1.363-0.189-2.704-0.245-4.015
	c-0.054-1.309-0.082-2.514-0.082-3.604v-83.68h13.933v117.445h-8.194C623.562,1133.267,622.509,1133.088,621.825,1132.732z"/>
<path fill="none" stroke="#8C8A89" stroke-width="0.25" d="M621.825,991.382c-0.68-0.355-1.461-1.078-2.335-2.172l-68.025-88.513
	c0.166,1.418,0.277,2.801,0.33,4.139c0.055,1.338,0.083,2.635,0.083,3.894v83.185h-13.935V874.471h8.035
	c1.255,0,2.307,0.217,3.154,0.653c0.848,0.438,1.68,1.175,2.5,2.215l67.94,88.431c-0.109-1.364-0.189-2.704-0.245-4.016
	c-0.054-1.308-0.082-2.513-0.082-3.604v-83.68h13.933v117.443h-8.194C623.562,991.914,622.509,991.737,621.825,991.382z"/>
<path fill="none" stroke="#8C8A89" stroke-width="0.25" d="M621.825,848.136c-0.68-0.356-1.461-1.08-2.335-2.172l-68.025-88.514
	c0.166,1.419,0.277,2.8,0.33,4.138c0.055,1.338,0.083,2.636,0.083,3.895v83.186h-13.935V731.223h8.035
	c1.255,0,2.307,0.218,3.154,0.655c0.848,0.437,1.68,1.175,2.5,2.215l67.94,88.431c-0.109-1.365-0.189-2.704-0.245-4.017
	c-0.054-1.309-0.082-2.514-0.082-3.604v-83.68h13.933v117.445h-8.194C623.562,848.668,622.509,848.49,621.825,848.136z"/>
<path fill="none" stroke="#8C8A89" stroke-width="0.25" d="M621.825,705.174c-0.68-0.355-1.461-1.08-2.335-2.172l-68.025-88.512
	c0.166,1.417,0.277,2.798,0.33,4.138c0.055,1.338,0.083,2.635,0.083,3.894v83.185h-13.935V588.264h8.035
	c1.255,0,2.307,0.215,3.154,0.652c0.848,0.438,1.68,1.175,2.5,2.215l67.94,88.431c-0.109-1.366-0.189-2.704-0.245-4.016
	c-0.054-1.311-0.082-2.513-0.082-3.606v-83.676h13.933v117.442h-8.194C623.562,705.706,622.509,705.529,621.825,705.174z"/>
<path fill="none" stroke="#8C8A89" stroke-width="0.25" d="M755.322,550.697c-0.68-0.356-1.463-1.08-2.335-2.171l-68.026-88.514
	c0.167,1.419,0.277,2.8,0.331,4.138c0.056,1.339,0.082,2.635,0.082,3.896v83.184h-13.934V433.785h8.034
	c1.255,0,2.309,0.217,3.155,0.655c0.847,0.438,1.678,1.174,2.5,2.214l67.939,88.43c-0.107-1.365-0.188-2.704-0.243-4.015
	c-0.054-1.31-0.083-2.514-0.083-3.605v-83.68h13.934v117.445h-8.195C757.059,551.229,756.006,551.051,755.322,550.697z"/>
<path fill="none" stroke="#8C8A89" stroke-width="0.25" d="M755.322,409.346c-0.68-0.356-1.463-1.08-2.335-2.171l-68.026-88.514
	c0.167,1.419,0.277,2.8,0.331,4.138c0.056,1.338,0.082,2.635,0.082,3.894v83.186h-13.934V292.434h8.034
	c1.255,0,2.309,0.217,3.155,0.655c0.847,0.437,1.678,1.174,2.5,2.214l67.939,88.43c-0.107-1.365-0.188-2.704-0.243-4.015
	c-0.054-1.31-0.083-2.515-0.083-3.605v-83.68h13.934v117.445h-8.195C757.059,409.878,756.006,409.7,755.322,409.346z"/>
<path fill="none" stroke="#8C8A89" stroke-width="0.25" d="M755.322,266.099c-0.68-0.356-1.463-1.078-2.335-2.171l-68.026-88.512
	c0.167,1.417,0.277,2.798,0.331,4.136c0.056,1.339,0.082,2.635,0.082,3.896v83.184h-13.934V149.186h8.034
	c1.255,0,2.309,0.218,3.155,0.656c0.847,0.438,1.678,1.174,2.5,2.214l67.939,88.43c-0.107-1.365-0.188-2.704-0.243-4.016
	c-0.054-1.309-0.083-2.512-0.083-3.604v-83.68h13.934v117.445h-8.195C757.059,266.631,756.006,266.453,755.322,266.099z"/>
<path fill="none" stroke="#8C8A89" stroke-width="0.25" d="M755.322,123.138c-0.68-0.356-1.463-1.081-2.335-2.171l-68.026-88.514
	c0.167,1.419,0.277,2.8,0.331,4.138c0.056,1.338,0.082,2.635,0.082,3.894v83.186h-13.934V6.227h8.034
	c1.255,0,2.309,0.215,3.155,0.654c0.847,0.437,1.678,1.173,2.5,2.213l67.939,88.43c-0.107-1.365-0.188-2.704-0.243-4.014
	c-0.054-1.311-0.083-2.515-0.083-3.606V6.227h13.934V123.67h-8.195C757.059,123.67,756.006,123.492,755.322,123.138z"/>
<path fill="none" stroke="#8C8A89" stroke-width="0.25" d="M755.322,1131.788c-0.68-0.356-1.463-1.078-2.335-2.171l-68.026-88.513
	c0.167,1.418,0.277,2.799,0.331,4.137c0.056,1.339,0.082,2.635,0.082,3.896v83.185h-13.934v-117.445h8.034
	c1.255,0,2.309,0.218,3.155,0.655c0.847,0.438,1.678,1.174,2.5,2.215l67.939,88.43c-0.107-1.365-0.188-2.704-0.243-4.015
	c-0.054-1.31-0.083-2.514-0.083-3.605v-83.68h13.934v117.445h-8.195C757.059,1132.321,756.006,1132.143,755.322,1131.788z"/>
<path fill="none" stroke="#8C8A89" stroke-width="0.25" d="M755.322,990.438c-0.68-0.356-1.463-1.08-2.335-2.172l-68.026-88.513
	c0.167,1.418,0.277,2.799,0.331,4.137c0.056,1.34,0.082,2.636,0.082,3.896v83.185h-13.934V873.524h8.034
	c1.255,0,2.309,0.218,3.155,0.655c0.847,0.438,1.678,1.175,2.5,2.215l67.939,88.43c-0.107-1.364-0.188-2.703-0.243-4.015
	c-0.054-1.31-0.083-2.513-0.083-3.605v-83.68h13.934V990.97h-8.195C757.059,990.97,756.006,990.791,755.322,990.438z"/>
<path fill="none" stroke="#8C8A89" stroke-width="0.25" d="M755.322,847.19c-0.68-0.355-1.463-1.079-2.335-2.172l-68.026-88.513
	c0.167,1.418,0.277,2.799,0.331,4.138c0.056,1.338,0.082,2.636,0.082,3.895v83.185h-13.934V730.277h8.034
	c1.255,0,2.309,0.219,3.155,0.655c0.847,0.438,1.678,1.175,2.5,2.215l67.939,88.43c-0.107-1.364-0.188-2.704-0.243-4.016
	c-0.054-1.309-0.083-2.513-0.083-3.604v-83.68h13.934v117.445h-8.195C757.059,847.723,756.006,847.544,755.322,847.19z"/>
<path fill="none" stroke="#8C8A89" stroke-width="0.25" d="M755.322,704.229c-0.68-0.356-1.463-1.081-2.335-2.172l-68.026-88.514
	c0.167,1.419,0.277,2.8,0.331,4.138c0.056,1.338,0.082,2.636,0.082,3.895v83.186h-13.934V587.318h8.034
	c1.255,0,2.309,0.215,3.155,0.653c0.847,0.437,1.678,1.175,2.5,2.215l67.939,88.431c-0.107-1.366-0.188-2.704-0.243-4.016
	c-0.054-1.311-0.083-2.515-0.083-3.606v-83.677h13.934v117.443h-8.195C757.059,704.762,756.006,704.584,755.322,704.229z"/>
<path fill="none" stroke="#8C8A89" stroke-width="0.25" d="M907.448,551.63c-0.681-0.355-1.461-1.078-2.334-2.171l-68.025-88.513
	c0.165,1.418,0.275,2.8,0.33,4.138c0.055,1.338,0.081,2.635,0.081,3.894v83.185h-13.935V434.719h8.033
	c1.256,0,2.311,0.217,3.156,0.655c0.847,0.437,1.681,1.173,2.5,2.213l67.94,88.43c-0.107-1.364-0.189-2.704-0.246-4.015
	c-0.052-1.308-0.081-2.513-0.081-3.604v-83.68H918.8v117.444h-8.195C909.185,552.163,908.133,551.986,907.448,551.63z"/>
<path fill="none" stroke="#8C8A89" stroke-width="0.25" d="M907.448,410.279c-0.681-0.355-1.461-1.078-2.334-2.171l-68.025-88.513
	c0.165,1.418,0.275,2.799,0.33,4.138c0.055,1.338,0.081,2.635,0.081,3.894v83.185h-13.935V293.367h8.033
	c1.256,0,2.311,0.219,3.156,0.655c0.847,0.438,1.681,1.174,2.5,2.215l67.94,88.43c-0.107-1.364-0.189-2.704-0.246-4.015
	c-0.052-1.308-0.081-2.513-0.081-3.604v-83.681H918.8v117.445h-8.195C909.185,410.812,908.133,410.635,907.448,410.279z"/>
<path fill="none" stroke="#8C8A89" stroke-width="0.25" d="M907.448,267.033c-0.681-0.356-1.461-1.08-2.334-2.171l-68.025-88.514
	c0.165,1.419,0.275,2.8,0.33,4.138c0.055,1.338,0.081,2.635,0.081,3.895v83.186h-13.935V150.121h8.033
	c1.256,0,2.311,0.218,3.156,0.656c0.847,0.437,1.681,1.173,2.5,2.213l67.94,88.43c-0.107-1.364-0.189-2.704-0.246-4.016
	c-0.052-1.307-0.081-2.512-0.081-3.603v-83.68H918.8v117.445h-8.195C909.185,267.566,908.133,267.388,907.448,267.033z"/>
<path fill="none" stroke="#8C8A89" stroke-width="0.25" d="M907.448,124.071c-0.681-0.355-1.461-1.08-2.334-2.171l-68.025-88.512
	c0.165,1.417,0.275,2.798,0.33,4.138c0.055,1.338,0.081,2.635,0.081,3.894v83.185h-13.935V7.16h8.033
	c1.256,0,2.311,0.215,3.156,0.654c0.847,0.438,1.681,1.174,2.5,2.215l67.94,88.43c-0.107-1.366-0.189-2.704-0.246-4.015
	c-0.052-1.311-0.081-2.513-0.081-3.606V7.16H918.8v117.444h-8.195C909.185,124.604,908.133,124.426,907.448,124.071z"/>
<path fill="none" stroke="#8C8A89" stroke-width="0.25" d="M907.448,1132.722c-0.681-0.355-1.461-1.078-2.334-2.17l-68.025-88.514
	c0.165,1.419,0.275,2.8,0.33,4.138c0.055,1.338,0.081,2.635,0.081,3.895v83.186h-13.935v-117.445h8.033
	c1.256,0,2.311,0.218,3.156,0.655c0.847,0.437,1.681,1.173,2.5,2.213l67.94,88.431c-0.107-1.364-0.189-2.704-0.246-4.016
	c-0.052-1.308-0.081-2.513-0.081-3.604v-83.68H918.8v117.445h-8.195C909.185,1133.256,908.133,1133.077,907.448,1132.722z"/>
<path fill="none" stroke="#8C8A89" stroke-width="0.25" d="M907.448,991.371c-0.681-0.355-1.461-1.079-2.334-2.172l-68.025-88.513
	c0.165,1.418,0.275,2.8,0.33,4.138c0.055,1.338,0.081,2.636,0.081,3.895v83.185h-13.935V874.459h8.033
	c1.256,0,2.311,0.218,3.156,0.655c0.847,0.437,1.681,1.174,2.5,2.214l67.94,88.43c-0.107-1.363-0.189-2.704-0.246-4.015
	c-0.052-1.309-0.081-2.514-0.081-3.604v-83.68H918.8v117.444h-8.195C909.185,991.903,908.133,991.727,907.448,991.371z"/>
<path fill="none" stroke="#8C8A89" stroke-width="0.25" d="M907.448,848.125c-0.681-0.357-1.461-1.08-2.334-2.172l-68.025-88.514
	c0.165,1.419,0.275,2.8,0.33,4.138c0.055,1.338,0.081,2.636,0.081,3.895v83.186h-13.935V731.212h8.033
	c1.256,0,2.311,0.218,3.156,0.655c0.847,0.437,1.681,1.175,2.5,2.215l67.94,88.43c-0.107-1.364-0.189-2.704-0.246-4.016
	c-0.052-1.309-0.081-2.514-0.081-3.604v-83.68H918.8v117.445h-8.195C909.185,848.657,908.133,848.479,907.448,848.125z"/>
<path fill="none" stroke="#8C8A89" stroke-width="0.25" d="M907.448,705.163c-0.681-0.355-1.461-1.08-2.334-2.172l-68.025-88.513
	c0.165,1.418,0.275,2.799,0.33,4.138c0.055,1.338,0.081,2.636,0.081,3.895v83.185h-13.935V588.252h8.033
	c1.256,0,2.311,0.216,3.156,0.653c0.847,0.438,1.681,1.175,2.5,2.215l67.94,88.43c-0.107-1.366-0.189-2.704-0.246-4.015
	c-0.052-1.311-0.081-2.514-0.081-3.606v-83.677H918.8v117.443h-8.195C909.185,705.695,908.133,705.518,907.448,705.163z"/>
<path fill="none" stroke="#8C8A89" stroke-width="0.25" d="M1039.926,550.701c-0.681-0.355-1.461-1.079-2.334-2.172l-68.026-88.512
	c0.166,1.417,0.275,2.798,0.331,4.138c0.054,1.338,0.081,2.635,0.081,3.894v83.185h-13.935V433.788h8.033
	c1.257,0,2.31,0.219,3.155,0.655c0.846,0.438,1.681,1.175,2.5,2.215l67.94,88.43c-0.108-1.365-0.189-2.704-0.245-4.015
	c-0.054-1.31-0.082-2.513-0.082-3.605v-83.68h13.935v117.445h-8.194C1041.66,551.233,1040.61,551.056,1039.926,550.701z"/>
<path fill="none" stroke="#8C8A89" stroke-width="0.25" d="M1039.926,409.35c-0.681-0.355-1.461-1.078-2.334-2.171l-68.026-88.512
	c0.166,1.417,0.275,2.798,0.331,4.138c0.054,1.338,0.081,2.634,0.081,3.894v83.185h-13.935V292.437h8.033
	c1.257,0,2.31,0.218,3.155,0.655c0.846,0.438,1.681,1.174,2.5,2.215l67.94,88.43c-0.108-1.365-0.189-2.704-0.245-4.015
	c-0.054-1.31-0.082-2.513-0.082-3.605v-83.68h13.935v117.445h-8.194C1041.66,409.882,1040.61,409.704,1039.926,409.35z"/>
<path fill="none" stroke="#8C8A89" stroke-width="0.25" d="M1039.926,266.103c-0.681-0.355-1.461-1.078-2.334-2.171l-68.026-88.513
	c0.166,1.418,0.275,2.799,0.331,4.138c0.054,1.337,0.081,2.635,0.081,3.894v83.184h-13.935V149.191h8.033
	c1.257,0,2.31,0.218,3.155,0.656c0.846,0.437,1.681,1.173,2.5,2.213l67.94,88.43c-0.108-1.364-0.189-2.704-0.245-4.016
	c-0.054-1.307-0.082-2.512-0.082-3.603v-83.68h13.935v117.444h-8.194C1041.66,266.635,1040.61,266.458,1039.926,266.103z"/>
<path fill="none" stroke="#8C8A89" stroke-width="0.25" d="M1039.926,123.142c-0.681-0.356-1.461-1.081-2.334-2.171l-68.026-88.512
	c0.166,1.417,0.275,2.798,0.331,4.136c0.054,1.339,0.081,2.635,0.081,3.896v83.184h-13.935V6.23h8.033
	c1.257,0,2.31,0.215,3.155,0.654c0.846,0.438,1.681,1.174,2.5,2.214l67.94,88.43c-0.108-1.366-0.189-2.704-0.245-4.015
	c-0.054-1.311-0.082-2.513-0.082-3.606V6.23h13.935v117.444h-8.194C1041.66,123.674,1040.61,123.496,1039.926,123.142z"/>
<path fill="none" stroke="#8C8A89" stroke-width="0.25" d="M1039.926,1131.792c-0.681-0.355-1.461-1.078-2.334-2.171l-68.026-88.513
	c0.166,1.418,0.275,2.799,0.331,4.138c0.054,1.338,0.081,2.635,0.081,3.895v83.184h-13.935v-117.443h8.033
	c1.257,0,2.31,0.218,3.155,0.654c0.846,0.438,1.681,1.174,2.5,2.214l67.94,88.431c-0.108-1.364-0.189-2.704-0.245-4.015
	c-0.054-1.309-0.082-2.514-0.082-3.604v-83.68h13.935v117.443h-8.194C1041.66,1132.324,1040.61,1132.147,1039.926,1131.792z"/>
<path fill="none" stroke="#8C8A89" stroke-width="0.25" d="M1039.926,990.441c-0.681-0.355-1.461-1.079-2.334-2.172l-68.026-88.513
	c0.166,1.418,0.275,2.799,0.331,4.138c0.054,1.338,0.081,2.636,0.081,3.895v83.185h-13.935V873.528h8.033
	c1.257,0,2.31,0.219,3.155,0.655c0.846,0.438,1.681,1.175,2.5,2.215l67.94,88.43c-0.108-1.364-0.189-2.704-0.245-4.015
	c-0.054-1.31-0.082-2.514-0.082-3.604v-83.681h13.935v117.445h-8.194C1041.66,990.974,1040.61,990.797,1039.926,990.441z"/>
<path fill="none" stroke="#8C8A89" stroke-width="0.25" d="M1039.926,847.193c-0.681-0.354-1.461-1.078-2.334-2.17l-68.026-88.514
	c0.166,1.419,0.275,2.8,0.331,4.138c0.054,1.338,0.081,2.636,0.081,3.895v83.186h-13.935V730.282h8.033
	c1.257,0,2.31,0.218,3.155,0.655c0.846,0.437,1.681,1.173,2.5,2.214l67.94,88.43c-0.108-1.363-0.189-2.704-0.245-4.016
	c-0.054-1.308-0.082-2.513-0.082-3.604v-83.68h13.935v117.445h-8.194C1041.66,847.728,1040.61,847.549,1039.926,847.193z"/>
<path fill="none" stroke="#8C8A89" stroke-width="0.25" d="M1039.926,704.233c-0.681-0.355-1.461-1.08-2.334-2.172l-68.026-88.513
	c0.166,1.418,0.275,2.799,0.331,4.138c0.054,1.338,0.081,2.634,0.081,3.895v83.185h-13.935V587.321h8.033
	c1.257,0,2.31,0.216,3.155,0.654c0.846,0.438,1.681,1.175,2.5,2.215l67.94,88.43c-0.108-1.366-0.189-2.704-0.245-4.015
	c-0.054-1.311-0.082-2.514-0.082-3.606v-83.678h13.935v117.444h-8.194C1041.66,704.766,1040.61,704.587,1039.926,704.233z"/>
<path fill="none" stroke="#8C8A89" stroke-width="0.25" d="M1192.053,551.635c-0.681-0.356-1.463-1.08-2.336-2.171l-68.026-88.514
	c0.166,1.419,0.277,2.8,0.331,4.138c0.056,1.338,0.081,2.635,0.081,3.895v83.186h-13.933V434.723h8.033
	c1.257,0,2.309,0.218,3.155,0.655c0.845,0.438,1.68,1.174,2.498,2.215l67.94,88.43c-0.106-1.365-0.188-2.704-0.243-4.015
	c-0.055-1.31-0.084-2.513-0.084-3.605v-83.68h13.935v117.445h-8.194C1193.788,552.168,1192.736,551.99,1192.053,551.635z"/>
<path fill="none" stroke="#8C8A89" stroke-width="0.25" d="M1192.053,410.284c-0.681-0.356-1.463-1.08-2.336-2.171l-68.026-88.514
	c0.166,1.419,0.277,2.8,0.331,4.138c0.056,1.338,0.081,2.635,0.081,3.895v83.186h-13.933V293.372h8.033
	c1.257,0,2.309,0.218,3.155,0.655c0.845,0.437,1.68,1.174,2.498,2.213l67.94,88.43c-0.106-1.364-0.188-2.704-0.243-4.014
	c-0.055-1.31-0.084-2.515-0.084-3.605v-83.68h13.935v117.445h-8.194C1193.788,410.817,1192.736,410.639,1192.053,410.284z"/>
<path fill="none" stroke="#8C8A89" stroke-width="0.25" d="M1192.053,267.037c-0.681-0.356-1.463-1.078-2.336-2.171l-68.026-88.513
	c0.166,1.418,0.277,2.799,0.331,4.137c0.056,1.339,0.081,2.635,0.081,3.896v83.184h-13.933V150.125h8.033
	c1.257,0,2.309,0.217,3.155,0.655c0.845,0.438,1.68,1.174,2.498,2.214l67.94,88.43c-0.106-1.365-0.188-2.704-0.243-4.016
	c-0.055-1.308-0.084-2.512-0.084-3.604v-83.68h13.935v117.445h-8.194C1193.788,267.569,1192.736,267.391,1192.053,267.037z"/>
<path fill="none" stroke="#8C8A89" stroke-width="0.25" d="M1192.053,124.075c-0.681-0.355-1.463-1.08-2.336-2.172l-68.026-88.512
	c0.166,1.419,0.277,2.8,0.331,4.138c0.056,1.338,0.081,2.635,0.081,3.895v83.186h-13.933V7.165h8.033
	c1.257,0,2.309,0.215,3.155,0.654c0.845,0.437,1.68,1.173,2.498,2.213l67.94,88.43c-0.106-1.365-0.188-2.704-0.243-4.015
	c-0.055-1.31-0.084-2.514-0.084-3.605V7.165h13.935v117.444h-8.194C1193.788,124.609,1192.736,124.431,1192.053,124.075z"/>
<path fill="none" stroke="#8C8A89" stroke-width="0.25" d="M1192.053,1132.727c-0.681-0.356-1.463-1.079-2.336-2.172l-68.026-88.512
	c0.166,1.418,0.277,2.799,0.331,4.137c0.056,1.339,0.081,2.635,0.081,3.896v83.184h-13.933v-117.444h8.033
	c1.257,0,2.309,0.217,3.155,0.655c0.845,0.438,1.68,1.174,2.498,2.214l67.94,88.431c-0.106-1.365-0.188-2.704-0.243-4.015
	c-0.055-1.311-0.084-2.514-0.084-3.605v-83.68h13.935v117.444h-8.194C1193.788,1133.259,1192.736,1133.081,1192.053,1132.727z"/>
<path fill="none" stroke="#8C8A89" stroke-width="0.25" d="M1192.053,991.376c-0.681-0.357-1.463-1.08-2.336-2.172l-68.026-88.514
	c0.166,1.419,0.277,2.8,0.331,4.138c0.056,1.338,0.081,2.635,0.081,3.895v83.186h-13.933V874.463h8.033
	c1.257,0,2.309,0.218,3.155,0.655c0.845,0.438,1.68,1.175,2.498,2.215l67.94,88.43c-0.106-1.364-0.188-2.704-0.243-4.015
	c-0.055-1.31-0.084-2.514-0.084-3.605v-83.68h13.935v117.445h-8.194C1193.788,991.908,1192.736,991.729,1192.053,991.376z"/>
<path fill="none" stroke="#8C8A89" stroke-width="0.25" d="M1192.053,848.128c-0.681-0.354-1.463-1.078-2.336-2.171l-68.026-88.513
	c0.166,1.418,0.277,2.799,0.331,4.138c0.056,1.338,0.081,2.634,0.081,3.895v83.185h-13.933V731.216h8.033
	c1.257,0,2.309,0.219,3.155,0.655c0.845,0.438,1.68,1.174,2.498,2.215l67.94,88.43c-0.106-1.365-0.188-2.704-0.243-4.016
	c-0.055-1.309-0.084-2.513-0.084-3.604v-83.68h13.935v117.445h-8.194C1193.788,848.661,1192.736,848.482,1192.053,848.128z"/>
<path fill="none" stroke="#8C8A89" stroke-width="0.25" d="M1192.053,705.168c-0.681-0.357-1.463-1.081-2.336-2.172l-68.026-88.514
	c0.166,1.419,0.277,2.8,0.331,4.138c0.056,1.338,0.081,2.636,0.081,3.895V705.7h-13.933V588.256h8.033
	c1.257,0,2.309,0.216,3.155,0.654c0.845,0.437,1.68,1.175,2.498,2.214l67.94,88.43c-0.106-1.365-0.188-2.704-0.243-4.014
	c-0.055-1.311-0.084-2.515-0.084-3.606v-83.678h13.935V705.7h-8.194C1193.788,705.7,1192.736,705.521,1192.053,705.168z"/>
<path fill="none" stroke="#8C8A89" stroke-width="0.25" d="M1325.548,550.69c-0.68-0.355-1.46-1.079-2.334-2.172l-68.024-88.512
	c0.165,1.418,0.275,2.799,0.329,4.138c0.055,1.338,0.081,2.635,0.081,3.895v83.184h-13.935V433.777h8.035
	c1.257,0,2.31,0.219,3.154,0.655c0.847,0.438,1.681,1.174,2.5,2.214l67.939,88.43c-0.106-1.365-0.189-2.704-0.243-4.015
	c-0.054-1.31-0.084-2.514-0.084-3.604v-83.681h13.935v117.445h-8.194C1327.286,551.222,1326.232,551.045,1325.548,550.69z"/>
<path fill="none" stroke="#8C8A89" stroke-width="0.25" d="M1325.548,409.339c-0.68-0.355-1.46-1.079-2.334-2.172l-68.024-88.512
	c0.165,1.418,0.275,2.799,0.329,4.138c0.055,1.338,0.081,2.634,0.081,3.895v83.184h-13.935V292.426h8.035
	c1.257,0,2.31,0.219,3.154,0.656c0.847,0.438,1.681,1.174,2.5,2.214l67.939,88.43c-0.106-1.365-0.189-2.704-0.243-4.015
	c-0.054-1.31-0.084-2.514-0.084-3.605v-83.68h13.935v117.445h-8.194C1327.286,409.871,1326.232,409.693,1325.548,409.339z"/>
<path fill="none" stroke="#8C8A89" stroke-width="0.25" d="M1325.548,266.091c-0.68-0.355-1.46-1.078-2.334-2.171l-68.024-88.513
	c0.165,1.418,0.275,2.8,0.329,4.138c0.055,1.338,0.081,2.635,0.081,3.894v83.185h-13.935V149.18h8.035
	c1.257,0,2.31,0.217,3.154,0.654c0.847,0.438,1.681,1.174,2.5,2.215l67.939,88.43c-0.106-1.364-0.189-2.704-0.243-4.016
	c-0.054-1.307-0.084-2.512-0.084-3.603v-83.68h13.935v117.444h-8.194C1327.286,266.624,1326.232,266.447,1325.548,266.091z"/>
<path fill="none" stroke="#8C8A89" stroke-width="0.25" d="M1325.548,123.131c-0.68-0.356-1.46-1.081-2.334-2.172l-68.024-88.512
	c0.165,1.418,0.275,2.799,0.329,4.137c0.055,1.339,0.081,2.635,0.081,3.896v83.184h-13.935V6.219h8.035
	c1.257,0,2.31,0.215,3.154,0.654c0.847,0.438,1.681,1.174,2.5,2.214l67.939,88.43c-0.106-1.366-0.189-2.704-0.243-4.015
	c-0.054-1.311-0.084-2.514-0.084-3.607V6.219h13.935v117.444h-8.194C1327.286,123.663,1326.232,123.485,1325.548,123.131z"/>
<path fill="none" stroke="#8C8A89" stroke-width="0.25" d="M1325.548,1131.781c-0.68-0.355-1.46-1.078-2.334-2.172l-68.024-88.513
	c0.165,1.418,0.275,2.799,0.329,4.138c0.055,1.338,0.081,2.636,0.081,3.895v83.185h-13.935v-117.444h8.035
	c1.257,0,2.31,0.218,3.154,0.654c0.847,0.438,1.681,1.175,2.5,2.215l67.939,88.43c-0.106-1.363-0.189-2.703-0.243-4.015
	c-0.054-1.308-0.084-2.513-0.084-3.604v-83.681h13.935v117.444h-8.194C1327.286,1132.313,1326.232,1132.137,1325.548,1131.781z"/>
<path fill="none" stroke="#8C8A89" stroke-width="0.25" d="M1325.548,990.43c-0.68-0.355-1.46-1.078-2.334-2.171l-68.024-88.513
	c0.165,1.418,0.275,2.799,0.329,4.138c0.055,1.338,0.081,2.635,0.081,3.895v83.185h-13.935V873.518h8.035
	c1.257,0,2.31,0.219,3.154,0.655c0.847,0.438,1.681,1.174,2.5,2.215l67.939,88.43c-0.106-1.365-0.189-2.704-0.243-4.015
	c-0.054-1.31-0.084-2.514-0.084-3.604v-83.681h13.935v117.445h-8.194C1327.286,990.963,1326.232,990.785,1325.548,990.43z"/>
<path fill="none" stroke="#8C8A89" stroke-width="0.25" d="M1325.548,847.184c-0.68-0.356-1.46-1.079-2.334-2.171l-68.024-88.514
	c0.165,1.419,0.275,2.8,0.329,4.138c0.055,1.338,0.081,2.635,0.081,3.895v83.186h-13.935V730.271h8.035
	c1.257,0,2.31,0.218,3.154,0.655c0.847,0.437,1.681,1.173,2.5,2.213l67.939,88.431c-0.106-1.364-0.189-2.704-0.243-4.017
	c-0.054-1.307-0.084-2.512-0.084-3.603v-83.68h13.935v117.445h-8.194C1327.286,847.717,1326.232,847.538,1325.548,847.184z"/>
<path fill="none" stroke="#8C8A89" stroke-width="0.25" d="M1325.548,704.222c-0.68-0.355-1.46-1.079-2.334-2.171l-68.024-88.513
	c0.165,1.418,0.275,2.799,0.329,4.138c0.055,1.338,0.081,2.634,0.081,3.895v83.185h-13.935V587.311h8.035
	c1.257,0,2.31,0.215,3.154,0.654c0.847,0.438,1.681,1.174,2.5,2.215l67.939,88.43c-0.106-1.366-0.189-2.704-0.243-4.015
	c-0.054-1.312-0.084-2.514-0.084-3.606v-83.678h13.935v117.444h-8.194C1327.286,704.755,1326.232,704.576,1325.548,704.222z"/>
<path fill="none" stroke="#8C8A89" stroke-width="0.25" d="M1477.675,551.625c-0.68-0.357-1.461-1.08-2.334-2.172l-68.026-88.514
	c0.166,1.419,0.277,2.8,0.331,4.138c0.054,1.339,0.081,2.635,0.081,3.894v83.186h-13.935V434.711h8.033
	c1.257,0,2.31,0.218,3.155,0.656c0.848,0.438,1.682,1.174,2.5,2.214l67.939,88.43c-0.107-1.365-0.188-2.704-0.244-4.015
	c-0.054-1.31-0.082-2.514-0.082-3.605v-83.68h13.935v117.445h-8.195C1479.412,552.157,1478.357,551.979,1477.675,551.625z"/>
<path fill="none" stroke="#8C8A89" stroke-width="0.25" d="M1477.675,410.273c-0.68-0.357-1.461-1.08-2.334-2.172l-68.026-88.514
	c0.166,1.419,0.277,2.8,0.331,4.138s0.081,2.635,0.081,3.894v83.186h-13.935V293.36h8.033c1.257,0,2.31,0.218,3.155,0.656
	c0.848,0.437,1.682,1.174,2.5,2.214l67.939,88.43c-0.107-1.365-0.188-2.705-0.244-4.015c-0.054-1.31-0.082-2.515-0.082-3.605v-83.68
	h13.935v117.445h-8.195C1479.412,410.806,1478.357,410.627,1477.675,410.273z"/>
<path fill="none" stroke="#8C8A89" stroke-width="0.25" d="M1477.675,267.026c-0.68-0.356-1.461-1.078-2.334-2.171l-68.026-88.513
	c0.166,1.418,0.277,2.799,0.331,4.137c0.054,1.339,0.081,2.635,0.081,3.896v83.185h-13.935V150.113h8.033
	c1.257,0,2.31,0.218,3.155,0.655c0.848,0.438,1.682,1.174,2.5,2.215l67.939,88.43c-0.107-1.365-0.188-2.704-0.244-4.016
	c-0.054-1.309-0.082-2.512-0.082-3.604v-83.68h13.935v117.445h-8.195C1479.412,267.559,1478.357,267.38,1477.675,267.026z"/>
<path fill="none" stroke="#8C8A89" stroke-width="0.25" d="M1477.675,124.065c-0.68-0.356-1.461-1.081-2.334-2.172l-68.026-88.514
	c0.166,1.419,0.277,2.8,0.331,4.138s0.081,2.635,0.081,3.894v83.186h-13.935V7.154h8.033c1.257,0,2.31,0.215,3.155,0.654
	c0.848,0.437,1.682,1.173,2.5,2.213l67.939,88.43c-0.107-1.365-0.188-2.704-0.244-4.013c-0.054-1.311-0.082-2.515-0.082-3.607V7.154
	h13.935v117.444h-8.195C1479.412,124.598,1478.357,124.419,1477.675,124.065z"/>
<path fill="none" stroke="#8C8A89" stroke-width="0.25" d="M1477.675,1132.716c-0.68-0.356-1.461-1.079-2.334-2.172l-68.026-88.513
	c0.166,1.418,0.277,2.799,0.331,4.137c0.054,1.34,0.081,2.636,0.081,3.896v83.185h-13.935v-117.445h8.033
	c1.257,0,2.31,0.218,3.155,0.655c0.848,0.438,1.682,1.175,2.5,2.215l67.939,88.43c-0.107-1.364-0.188-2.704-0.244-4.015
	c-0.054-1.31-0.082-2.514-0.082-3.605v-83.68h13.935v117.445h-8.195C1479.412,1133.248,1478.357,1133.07,1477.675,1132.716z"/>
<path fill="none" stroke="#8C8A89" stroke-width="0.25" d="M1477.675,991.364c-0.68-0.356-1.461-1.079-2.334-2.171l-68.026-88.514
	c0.166,1.419,0.277,2.8,0.331,4.138c0.054,1.339,0.081,2.635,0.081,3.894v83.186h-13.935V874.452h8.033
	c1.257,0,2.31,0.218,3.155,0.655c0.848,0.438,1.682,1.174,2.5,2.215l67.939,88.43c-0.107-1.365-0.188-2.704-0.244-4.015
	c-0.054-1.31-0.082-2.514-0.082-3.605v-83.68h13.935v117.444h-8.195C1479.412,991.896,1478.357,991.719,1477.675,991.364z"/>
<path fill="none" stroke="#8C8A89" stroke-width="0.25" d="M1477.675,848.117c-0.68-0.355-1.461-1.078-2.334-2.172l-68.026-88.512
	c0.166,1.418,0.277,2.799,0.331,4.138c0.054,1.338,0.081,2.634,0.081,3.895v83.184h-13.935V731.204h8.033
	c1.257,0,2.31,0.22,3.155,0.656c0.848,0.438,1.682,1.174,2.5,2.214l67.939,88.431c-0.107-1.365-0.188-2.704-0.244-4.017
	c-0.054-1.309-0.082-2.512-0.082-3.604v-83.681h13.935v117.445h-8.195C1479.412,848.649,1478.357,848.472,1477.675,848.117z"/>
<path fill="none" stroke="#8C8A89" stroke-width="0.25" d="M1477.675,705.156c-0.68-0.356-1.461-1.08-2.334-2.171l-68.026-88.514
	c0.166,1.419,0.277,2.8,0.331,4.138s0.081,2.635,0.081,3.895v83.186h-13.935V588.245h8.033c1.257,0,2.31,0.215,3.155,0.654
	c0.848,0.437,1.682,1.174,2.5,2.215l67.939,88.43c-0.107-1.366-0.188-2.705-0.244-4.015c-0.054-1.312-0.082-2.515-0.082-3.606
	v-83.678h13.935v117.444h-8.195C1479.412,705.689,1478.357,705.511,1477.675,705.156z"/>
<path fill="none" stroke="#8C8A89" stroke-width="0.25" d="M1621.975,550.706c-0.68-0.357-1.461-1.08-2.335-2.172l-68.026-88.514
	c0.167,1.419,0.275,2.8,0.331,4.138c0.055,1.338,0.081,2.635,0.081,3.895v83.186h-13.934V433.793h8.033
	c1.257,0,2.31,0.218,3.155,0.656c0.847,0.437,1.68,1.173,2.5,2.213l67.94,88.43c-0.108-1.364-0.189-2.704-0.245-4.014
	c-0.054-1.31-0.082-2.515-0.082-3.605v-83.68h13.934v117.445h-8.193C1623.71,551.238,1622.658,551.06,1621.975,550.706z"/>
<path fill="none" stroke="#8C8A89" stroke-width="0.25" d="M1621.975,409.354c-0.68-0.355-1.461-1.079-2.335-2.171l-68.026-88.513
	c0.167,1.419,0.275,2.8,0.331,4.138c0.055,1.338,0.081,2.635,0.081,3.895v83.184h-13.934V292.442h8.033
	c1.257,0,2.31,0.218,3.155,0.656c0.847,0.437,1.68,1.173,2.5,2.213l67.94,88.43c-0.108-1.364-0.189-2.704-0.245-4.015
	c-0.054-1.309-0.082-2.514-0.082-3.604v-83.68h13.934v117.444h-8.193C1623.71,409.886,1622.658,409.709,1621.975,409.354z"/>
<path fill="none" stroke="#8C8A89" stroke-width="0.25" d="M1621.975,266.107c-0.68-0.356-1.461-1.08-2.335-2.171l-68.026-88.514
	c0.167,1.419,0.275,2.8,0.331,4.138c0.055,1.338,0.081,2.635,0.081,3.895v83.186h-13.934V149.195h8.033
	c1.257,0,2.31,0.218,3.155,0.655c0.847,0.437,1.68,1.174,2.5,2.215l67.94,88.43c-0.108-1.365-0.189-2.704-0.245-4.016
	c-0.054-1.308-0.082-2.513-0.082-3.604v-83.68h13.934V266.64h-8.193C1623.71,266.64,1622.658,266.462,1621.975,266.107z"/>
<path fill="none" stroke="#8C8A89" stroke-width="0.25" d="M1621.975,123.146c-0.68-0.355-1.461-1.08-2.335-2.171l-68.026-88.513
	c0.167,1.418,0.275,2.799,0.331,4.138c0.055,1.337,0.081,2.635,0.081,3.894v83.184h-13.934V6.235h8.033
	c1.257,0,2.31,0.215,3.155,0.653c0.847,0.438,1.68,1.174,2.5,2.215l67.94,88.43c-0.108-1.366-0.189-2.704-0.245-4.015
	c-0.054-1.311-0.082-2.514-0.082-3.605V6.235h13.934v117.442h-8.193C1623.71,123.678,1622.658,123.501,1621.975,123.146z"/>
<path fill="none" stroke="#8C8A89" stroke-width="0.25" d="M1621.975,1131.797c-0.68-0.356-1.461-1.079-2.335-2.172l-68.026-88.514
	c0.167,1.42,0.275,2.801,0.331,4.139c0.055,1.338,0.081,2.635,0.081,3.894v83.186h-13.934v-117.444h8.033
	c1.257,0,2.31,0.217,3.155,0.655c0.847,0.437,1.68,1.174,2.5,2.214l67.94,88.431c-0.108-1.365-0.189-2.704-0.245-4.015
	c-0.054-1.31-0.082-2.515-0.082-3.605v-83.68h13.934v117.444h-8.193C1623.71,1132.329,1622.658,1132.151,1621.975,1131.797z"/>
<path fill="none" stroke="#8C8A89" stroke-width="0.25" d="M1621.975,990.446c-0.68-0.356-1.461-1.08-2.335-2.172l-68.026-88.514
	c0.167,1.419,0.275,2.8,0.331,4.138c0.055,1.338,0.081,2.635,0.081,3.895v83.186h-13.934V873.533h8.033
	c1.257,0,2.31,0.218,3.155,0.655c0.847,0.437,1.68,1.173,2.5,2.214l67.94,88.43c-0.108-1.363-0.189-2.704-0.245-4.014
	c-0.054-1.31-0.082-2.515-0.082-3.605v-83.68h13.934v117.445h-8.193C1623.71,990.979,1622.658,990.8,1621.975,990.446z"/>
<path fill="none" stroke="#8C8A89" stroke-width="0.25" d="M1621.975,847.199c-0.68-0.357-1.461-1.08-2.335-2.172l-68.026-88.513
	c0.167,1.418,0.275,2.799,0.331,4.137c0.055,1.339,0.081,2.635,0.081,3.896v83.185h-13.934V730.286h8.033
	c1.257,0,2.31,0.218,3.155,0.655c0.847,0.438,1.68,1.174,2.5,2.215l67.94,88.43c-0.108-1.365-0.189-2.704-0.245-4.016
	c-0.054-1.309-0.082-2.513-0.082-3.604v-83.68h13.934v117.445h-8.193C1623.71,847.731,1622.658,847.553,1621.975,847.199z"/>
<path fill="none" stroke="#8C8A89" stroke-width="0.25" d="M1621.975,704.236c-0.68-0.354-1.461-1.079-2.335-2.171l-68.026-88.513
	c0.167,1.418,0.275,2.8,0.331,4.138c0.055,1.338,0.081,2.636,0.081,3.895v83.185h-13.934V587.326h8.033
	c1.257,0,2.31,0.216,3.155,0.654c0.847,0.437,1.68,1.173,2.5,2.214l67.94,88.43c-0.108-1.365-0.189-2.704-0.245-4.015
	c-0.054-1.31-0.082-2.514-0.082-3.605v-83.678h13.934V704.77h-8.193C1623.71,704.77,1622.658,704.592,1621.975,704.236z"/>
<path fill="none" stroke="#8C8A89" stroke-width="0.25" d="M1774.1,551.639c-0.68-0.355-1.46-1.079-2.333-2.171l-68.026-88.513
	c0.164,1.418,0.276,2.799,0.33,4.138c0.056,1.338,0.082,2.634,0.082,3.895v83.184h-13.935V434.727h8.034
	c1.257,0,2.31,0.219,3.154,0.655c0.846,0.438,1.681,1.174,2.498,2.215l67.941,88.43c-0.106-1.365-0.189-2.704-0.245-4.015
	c-0.052-1.31-0.081-2.514-0.081-3.605v-83.68h13.934v117.445h-8.194C1775.838,552.171,1774.785,551.993,1774.1,551.639z"/>
<path fill="none" stroke="#8C8A89" stroke-width="0.25" d="M1774.1,410.288c-0.68-0.355-1.46-1.079-2.333-2.171l-68.026-88.513
	c0.164,1.418,0.276,2.799,0.33,4.137c0.056,1.339,0.082,2.635,0.082,3.896v83.184h-13.935V293.375h8.034
	c1.257,0,2.31,0.217,3.154,0.655c0.846,0.438,1.681,1.174,2.498,2.214l67.941,88.43c-0.106-1.365-0.189-2.704-0.245-4.015
	c-0.052-1.31-0.081-2.514-0.081-3.605v-83.68h13.934V410.82h-8.194C1775.838,410.82,1774.785,410.642,1774.1,410.288z"/>
<path fill="none" stroke="#8C8A89" stroke-width="0.25" d="M1774.1,267.041c-0.68-0.355-1.46-1.079-2.333-2.172l-68.026-88.512
	c0.164,1.417,0.276,2.798,0.33,4.138c0.056,1.338,0.082,2.635,0.082,3.895v83.184h-13.935V150.129h8.034
	c1.257,0,2.31,0.217,3.154,0.654c0.846,0.438,1.681,1.175,2.498,2.215l67.941,88.43c-0.106-1.364-0.189-2.704-0.245-4.016
	c-0.052-1.307-0.081-2.512-0.081-3.603v-83.68h13.934v117.444h-8.194C1775.838,267.573,1774.785,267.396,1774.1,267.041z"/>
<path fill="none" stroke="#8C8A89" stroke-width="0.25" d="M1774.1,124.08c-0.68-0.356-1.46-1.081-2.333-2.171l-68.026-88.514
	c0.164,1.419,0.276,2.8,0.33,4.138c0.056,1.339,0.082,2.635,0.082,3.896v83.184h-13.935V7.168h8.034c1.257,0,2.31,0.215,3.154,0.654
	c0.846,0.438,1.681,1.174,2.498,2.214l67.941,88.43c-0.106-1.366-0.189-2.704-0.245-4.015c-0.052-1.311-0.081-2.514-0.081-3.607
	V7.168h13.934v117.444h-8.194C1775.838,124.612,1774.785,124.434,1774.1,124.08z"/>
<path fill="none" stroke="#8C8A89" stroke-width="0.25" d="M1774.1,1132.73c-0.68-0.355-1.46-1.078-2.333-2.172l-68.026-88.512
	c0.164,1.417,0.276,2.798,0.33,4.138c0.056,1.338,0.082,2.635,0.082,3.894v83.185h-13.935v-117.445h8.034
	c1.257,0,2.31,0.219,3.154,0.655c0.846,0.438,1.681,1.175,2.498,2.215l67.941,88.431c-0.106-1.365-0.189-2.704-0.245-4.016
	c-0.052-1.31-0.081-2.513-0.081-3.604v-83.682h13.934v117.445h-8.194C1775.838,1133.263,1774.785,1133.086,1774.1,1132.73z"/>
<path fill="none" stroke="#8C8A89" stroke-width="0.25" d="M1774.1,991.379c-0.68-0.355-1.46-1.078-2.333-2.171l-68.026-88.513
	c0.164,1.418,0.276,2.799,0.33,4.138c0.056,1.338,0.082,2.634,0.082,3.895v83.185h-13.935V874.467h8.034
	c1.257,0,2.31,0.219,3.154,0.655c0.846,0.438,1.681,1.174,2.498,2.215l67.941,88.43c-0.106-1.365-0.189-2.704-0.245-4.015
	c-0.052-1.31-0.081-2.514-0.081-3.605v-83.68h13.934v117.445h-8.194C1775.838,991.912,1774.785,991.733,1774.1,991.379z"/>
<path fill="none" stroke="#8C8A89" stroke-width="0.25" d="M1774.1,848.132c-0.68-0.355-1.46-1.078-2.333-2.171l-68.026-88.513
	c0.164,1.419,0.276,2.8,0.33,4.138c0.056,1.338,0.082,2.635,0.082,3.895v83.184h-13.935V731.221h8.034
	c1.257,0,2.31,0.218,3.154,0.655c0.846,0.437,1.681,1.173,2.498,2.213l67.941,88.431c-0.106-1.364-0.189-2.704-0.245-4.017
	c-0.052-1.307-0.081-2.512-0.081-3.603v-83.68h13.934v117.443h-8.194C1775.838,848.664,1774.785,848.487,1774.1,848.132z"/>
<path fill="none" stroke="#8C8A89" stroke-width="0.25" d="M1774.1,705.171c-0.68-0.354-1.46-1.08-2.333-2.171l-68.026-88.513
	c0.164,1.418,0.276,2.799,0.33,4.137c0.056,1.339,0.082,2.635,0.082,3.896v83.185h-13.935V588.26h8.034
	c1.257,0,2.31,0.215,3.154,0.654c0.846,0.438,1.681,1.174,2.498,2.215l67.941,88.43c-0.106-1.366-0.189-2.704-0.245-4.015
	c-0.052-1.311-0.081-2.514-0.081-3.606V588.26h13.934v117.444h-8.194C1775.838,705.704,1774.785,705.525,1774.1,705.171z"/>
<path fill="none" stroke="#8C8A89" stroke-width="0.25" d="M1907.598,550.695c-0.681-0.356-1.461-1.08-2.334-2.171l-68.025-88.514
	c0.165,1.419,0.275,2.8,0.33,4.138c0.054,1.338,0.081,2.635,0.081,3.894v83.186h-13.935V433.782h8.033
	c1.257,0,2.31,0.217,3.155,0.655c0.847,0.437,1.681,1.173,2.5,2.213l67.94,88.43c-0.108-1.364-0.189-2.704-0.245-4.014
	c-0.053-1.31-0.082-2.515-0.082-3.605v-83.68h13.935v117.445h-8.196C1909.335,551.227,1908.281,551.049,1907.598,550.695z"/>
<path fill="none" stroke="#8C8A89" stroke-width="0.25" d="M1907.598,409.342c-0.681-0.355-1.461-1.078-2.334-2.171l-68.025-88.513
	c0.165,1.418,0.275,2.8,0.33,4.138c0.054,1.338,0.081,2.635,0.081,3.894v83.186h-13.935V292.431h8.033
	c1.257,0,2.31,0.218,3.155,0.656c0.847,0.437,1.681,1.173,2.5,2.213l67.94,88.43c-0.108-1.364-0.189-2.704-0.245-4.015
	c-0.053-1.308-0.082-2.513-0.082-3.604v-83.68h13.935v117.445h-8.196C1909.335,409.876,1908.281,409.698,1907.598,409.342z"/>
<path fill="none" stroke="#8C8A89" stroke-width="0.25" d="M1907.598,266.097c-0.681-0.357-1.461-1.08-2.334-2.172l-68.025-88.514
	c0.165,1.419,0.275,2.8,0.33,4.138c0.054,1.339,0.081,2.635,0.081,3.895v83.186h-13.935V149.184h8.033
	c1.257,0,2.31,0.218,3.155,0.655c0.847,0.438,1.681,1.175,2.5,2.215l67.94,88.43c-0.108-1.365-0.189-2.704-0.245-4.016
	c-0.053-1.309-0.082-2.512-0.082-3.604v-83.68h13.935v117.445h-8.196C1909.335,266.629,1908.281,266.451,1907.598,266.097z"/>
<path fill="none" stroke="#8C8A89" stroke-width="0.25" d="M1907.598,123.134c-0.681-0.355-1.461-1.08-2.334-2.171l-68.025-88.513
	c0.165,1.418,0.275,2.799,0.33,4.138c0.054,1.338,0.081,2.635,0.081,3.894v83.185h-13.935V6.224h8.033
	c1.257,0,2.31,0.215,3.155,0.653c0.847,0.438,1.681,1.174,2.5,2.215l67.94,88.43c-0.108-1.366-0.189-2.704-0.245-4.015
	c-0.053-1.311-0.082-2.513-0.082-3.606V6.224h13.935v117.443h-8.196C1909.335,123.667,1908.281,123.49,1907.598,123.134z"/>
<path fill="none" stroke="#8C8A89" stroke-width="0.25" d="M1907.598,1131.786c-0.681-0.356-1.461-1.08-2.334-2.172l-68.025-88.514
	c0.165,1.419,0.275,2.8,0.33,4.138c0.054,1.338,0.081,2.636,0.081,3.895v83.186h-13.935v-117.445h8.033
	c1.257,0,2.31,0.218,3.155,0.655c0.847,0.437,1.681,1.175,2.5,2.215l67.94,88.431c-0.108-1.365-0.189-2.704-0.245-4.016
	c-0.053-1.31-0.082-2.515-0.082-3.605v-83.68h13.935v117.445h-8.196C1909.335,1132.318,1908.281,1132.141,1907.598,1131.786z"/>
<path fill="none" stroke="#8C8A89" stroke-width="0.25" d="M1907.598,990.435c-0.681-0.356-1.461-1.079-2.334-2.171l-68.025-88.514
	c0.165,1.419,0.275,2.8,0.33,4.138c0.054,1.338,0.081,2.635,0.081,3.895v83.186h-13.935V873.522h8.033
	c1.257,0,2.31,0.218,3.155,0.655c0.847,0.437,1.681,1.173,2.5,2.213l67.94,88.431c-0.108-1.364-0.189-2.704-0.245-4.014
	c-0.053-1.31-0.082-2.515-0.082-3.605v-83.68h13.935v117.445h-8.196C1909.335,990.968,1908.281,990.789,1907.598,990.435z"/>
<path fill="none" stroke="#8C8A89" stroke-width="0.25" d="M1907.598,847.188c-0.681-0.356-1.461-1.078-2.334-2.172l-68.025-88.512
	c0.165,1.418,0.275,2.799,0.33,4.137c0.054,1.339,0.081,2.635,0.081,3.896v83.184h-13.935V730.275h8.033
	c1.257,0,2.31,0.217,3.155,0.655c0.847,0.438,1.681,1.174,2.5,2.214l67.94,88.431c-0.108-1.365-0.189-2.704-0.245-4.017
	c-0.053-1.308-0.082-2.512-0.082-3.604v-83.68h13.935V847.72h-8.196C1909.335,847.72,1908.281,847.542,1907.598,847.188z"/>
<path fill="none" stroke="#8C8A89" stroke-width="0.25" d="M1907.598,704.226c-0.681-0.355-1.461-1.079-2.334-2.172l-68.025-88.512
	c0.165,1.419,0.275,2.8,0.33,4.138c0.054,1.338,0.081,2.635,0.081,3.895v83.186h-13.935V587.315h8.033
	c1.257,0,2.31,0.215,3.155,0.654c0.847,0.437,1.681,1.173,2.5,2.213l67.94,88.431c-0.108-1.365-0.189-2.704-0.245-4.015
	c-0.053-1.31-0.082-2.514-0.082-3.605v-83.678h13.935V704.76h-8.196C1909.335,704.76,1908.281,704.581,1907.598,704.226z"/>
<path fill="none" stroke="#8C8A89" stroke-width="0.25" d="M2059.726,551.628c-0.682-0.355-1.462-1.078-2.337-2.171l-68.024-88.513
	c0.166,1.418,0.276,2.799,0.329,4.138c0.056,1.338,0.082,2.635,0.082,3.894v83.185h-13.934V434.715h8.033
	c1.256,0,2.309,0.219,3.155,0.655c0.847,0.438,1.68,1.174,2.5,2.215l67.938,88.43c-0.106-1.365-0.188-2.704-0.242-4.015
	c-0.055-1.31-0.083-2.513-0.083-3.605v-83.68h13.934v117.445h-8.194C2061.46,552.161,2060.406,551.982,2059.726,551.628z"/>
<path fill="none" stroke="#8C8A89" stroke-width="0.25" d="M2059.726,410.277c-0.682-0.355-1.462-1.078-2.337-2.171l-68.024-88.513
	c0.166,1.418,0.276,2.799,0.329,4.137c0.056,1.339,0.082,2.635,0.082,3.896v83.185h-13.934V293.364h8.033
	c1.256,0,2.309,0.218,3.155,0.655c0.847,0.438,1.68,1.174,2.5,2.215l67.938,88.43c-0.106-1.365-0.188-2.704-0.242-4.015
	c-0.055-1.31-0.083-2.513-0.083-3.605v-83.68h13.934V410.81h-8.194C2061.46,410.81,2060.406,410.631,2059.726,410.277z"/>
<path fill="none" stroke="#8C8A89" stroke-width="0.25" d="M2059.726,267.03c-0.682-0.355-1.462-1.079-2.337-2.171l-68.024-88.513
	c0.166,1.418,0.276,2.799,0.329,4.138c0.056,1.338,0.082,2.635,0.082,3.895v83.184h-13.934V150.117h8.033
	c1.256,0,2.309,0.219,3.155,0.655c0.847,0.438,1.68,1.174,2.5,2.214l67.938,88.43c-0.106-1.364-0.188-2.704-0.242-4.016
	c-0.055-1.307-0.083-2.512-0.083-3.603v-83.681h13.934v117.445h-8.194C2061.46,267.562,2060.406,267.385,2059.726,267.03z"/>
<path fill="none" stroke="#8C8A89" stroke-width="0.25" d="M2059.726,124.069c-0.682-0.356-1.462-1.081-2.337-2.171l-68.024-88.513
	c0.166,1.418,0.276,2.799,0.329,4.137c0.056,1.339,0.082,2.635,0.082,3.896v83.185h-13.934V7.157h8.033
	c1.256,0,2.309,0.215,3.155,0.654c0.847,0.438,1.68,1.174,2.5,2.215l67.938,88.43c-0.106-1.366-0.188-2.704-0.242-4.015
	c-0.055-1.311-0.083-2.513-0.083-3.606V7.157h13.934v117.444h-8.194C2061.46,124.602,2060.406,124.423,2059.726,124.069z"/>
<path fill="none" stroke="#8C8A89" stroke-width="0.25" d="M2059.726,1132.72c-0.682-0.355-1.462-1.079-2.337-2.172l-68.024-88.513
	c0.166,1.418,0.276,2.799,0.329,4.138c0.056,1.338,0.082,2.636,0.082,3.895v83.185h-13.934v-117.445h8.033
	c1.256,0,2.309,0.219,3.155,0.655c0.847,0.438,1.68,1.175,2.5,2.215l67.938,88.43c-0.106-1.363-0.188-2.704-0.242-4.015
	c-0.055-1.309-0.083-2.514-0.083-3.604v-83.681h13.934v117.445h-8.194C2061.46,1133.252,2060.406,1133.074,2059.726,1132.72z"/>
<path fill="none" stroke="#8C8A89" stroke-width="0.25" d="M2059.726,991.368c-0.682-0.355-1.462-1.078-2.337-2.172l-68.024-88.512
	c0.166,1.417,0.276,2.798,0.329,4.138c0.056,1.338,0.082,2.635,0.082,3.895V991.9h-13.934V874.455h8.033
	c1.256,0,2.309,0.219,3.155,0.656s1.68,1.174,2.5,2.214l67.938,88.431c-0.106-1.365-0.188-2.704-0.242-4.016
	c-0.055-1.31-0.083-2.513-0.083-3.604v-83.681h13.934V991.9h-8.194C2061.46,991.9,2060.406,991.723,2059.726,991.368z"/>
<path fill="none" stroke="#8C8A89" stroke-width="0.25" d="M2059.726,848.121c-0.682-0.355-1.462-1.078-2.337-2.172l-68.024-88.513
	c0.166,1.42,0.276,2.801,0.329,4.139c0.056,1.338,0.082,2.635,0.082,3.894v83.186h-13.934V731.209h8.033
	c1.256,0,2.309,0.218,3.155,0.656c0.847,0.437,1.68,1.173,2.5,2.213l67.938,88.43c-0.106-1.363-0.188-2.703-0.242-4.016
	c-0.055-1.307-0.083-2.512-0.083-3.603v-83.681h13.934v117.445h-8.194C2061.46,848.654,2060.406,848.477,2059.726,848.121z"/>
<path fill="none" stroke="#8C8A89" stroke-width="0.25" d="M2059.726,705.16c-0.682-0.355-1.462-1.079-2.337-2.172l-68.024-88.512
	c0.166,1.418,0.276,2.799,0.329,4.137c0.056,1.339,0.082,2.635,0.082,3.896v83.184h-13.934V588.249h8.033
	c1.256,0,2.309,0.215,3.155,0.654c0.847,0.438,1.68,1.174,2.5,2.214l67.938,88.431c-0.106-1.366-0.188-2.704-0.242-4.015
	c-0.055-1.312-0.083-2.514-0.083-3.607v-83.677h13.934v117.443h-8.194C2061.46,705.692,2060.406,705.515,2059.726,705.16z"/>
<path fill="none" stroke="#8C8A89" stroke-width="0.25" d="M2192.201,550.698c-0.681-0.356-1.461-1.078-2.336-2.171l-68.023-88.512
	c0.165,1.417,0.275,2.798,0.328,4.136c0.057,1.339,0.082,2.635,0.082,3.896v83.185h-13.934V433.786h8.035
	c1.256,0,2.307,0.218,3.154,0.655c0.846,0.438,1.68,1.174,2.499,2.215l67.939,88.43c-0.106-1.365-0.188-2.704-0.243-4.015
	c-0.056-1.31-0.084-2.513-0.084-3.605v-83.68h13.935v117.445h-8.194C2193.938,551.231,2192.886,551.053,2192.201,550.698z"/>
<path fill="none" stroke="#8C8A89" stroke-width="0.25" d="M2192.201,409.347c-0.681-0.356-1.461-1.08-2.336-2.171l-68.023-88.514
	c0.165,1.419,0.275,2.8,0.328,4.138c0.057,1.339,0.082,2.635,0.082,3.896v83.185h-13.934V292.435h8.035
	c1.256,0,2.307,0.218,3.154,0.655c0.846,0.438,1.68,1.174,2.499,2.215l67.939,88.43c-0.106-1.365-0.188-2.704-0.243-4.015
	c-0.056-1.31-0.084-2.513-0.084-3.605v-83.68h13.935V409.88h-8.194C2193.938,409.88,2192.886,409.702,2192.201,409.347z"/>
<path fill="none" stroke="#8C8A89" stroke-width="0.25" d="M2192.201,266.1c-0.681-0.355-1.461-1.079-2.336-2.171l-68.023-88.513
	c0.165,1.418,0.275,2.799,0.328,4.138c0.057,1.338,0.082,2.635,0.082,3.895v83.185h-13.934V149.188h8.035
	c1.256,0,2.307,0.219,3.154,0.655c0.846,0.438,1.68,1.174,2.499,2.215l67.939,88.43c-0.106-1.365-0.188-2.704-0.243-4.016
	c-0.056-1.308-0.084-2.512-0.084-3.604v-83.68h13.935v117.445h-8.194C2193.938,266.633,2192.886,266.454,2192.201,266.1z"/>
<path fill="none" stroke="#8C8A89" stroke-width="0.25" d="M2192.201,123.14c-0.681-0.357-1.461-1.081-2.336-2.172l-68.023-88.514
	c0.165,1.419,0.275,2.8,0.328,4.138c0.057,1.338,0.082,2.635,0.082,3.895v83.186h-13.934V6.228h8.035
	c1.256,0,2.307,0.215,3.154,0.654c0.846,0.437,1.68,1.175,2.499,2.215l67.939,88.43c-0.106-1.366-0.188-2.706-0.243-4.015
	c-0.056-1.311-0.084-2.515-0.084-3.606V6.228h13.935v117.444h-8.194C2193.938,123.672,2192.886,123.494,2192.201,123.14z"/>
<path fill="none" stroke="#8C8A89" stroke-width="0.25" d="M2192.201,1131.79c-0.681-0.355-1.461-1.079-2.336-2.172l-68.023-88.513
	c0.165,1.418,0.275,2.799,0.328,4.138c0.057,1.338,0.082,2.634,0.082,3.895v83.185h-13.934v-117.445h8.035
	c1.256,0,2.307,0.219,3.154,0.655c0.846,0.438,1.68,1.175,2.499,2.215l67.939,88.43c-0.106-1.364-0.188-2.704-0.243-4.015
	c-0.056-1.31-0.084-2.514-0.084-3.605v-83.68h13.935v117.445h-8.194C2193.938,1132.322,2192.886,1132.144,2192.201,1131.79z"/>
<path fill="none" stroke="#8C8A89" stroke-width="0.25" d="M2192.201,990.438c-0.681-0.356-1.461-1.078-2.336-2.172l-68.023-88.512
	c0.165,1.417,0.275,2.799,0.328,4.137c0.057,1.339,0.082,2.635,0.082,3.896v83.184h-13.934V873.525h8.035
	c1.256,0,2.307,0.218,3.154,0.656c0.846,0.438,1.68,1.174,2.499,2.214l67.939,88.431c-0.106-1.365-0.188-2.704-0.243-4.015
	c-0.056-1.31-0.084-2.514-0.084-3.605v-83.681h13.935v117.445h-8.194C2193.938,990.971,2192.886,990.793,2192.201,990.438z"/>
<path fill="none" stroke="#8C8A89" stroke-width="0.25" d="M2192.201,847.191c-0.681-0.355-1.461-1.078-2.336-2.172l-68.023-88.512
	c0.165,1.417,0.275,2.798,0.328,4.138c0.057,1.338,0.082,2.635,0.082,3.894v83.185h-13.934V730.278h8.035
	c1.256,0,2.307,0.219,3.154,0.655c0.846,0.438,1.68,1.175,2.499,2.215l67.939,88.431c-0.106-1.364-0.188-2.704-0.243-4.017
	c-0.056-1.307-0.084-2.512-0.084-3.603v-83.682h13.935v117.445h-8.194C2193.938,847.724,2192.886,847.547,2192.201,847.191z"/>
<path fill="none" stroke="#8C8A89" stroke-width="0.25" d="M2192.201,704.23c-0.681-0.356-1.461-1.081-2.336-2.172l-68.023-88.514
	c0.165,1.42,0.275,2.801,0.328,4.139c0.057,1.339,0.082,2.635,0.082,3.896v83.184h-13.934V587.319h8.035
	c1.256,0,2.307,0.215,3.154,0.654c0.846,0.438,1.68,1.174,2.499,2.214l67.939,88.431c-0.106-1.366-0.188-2.704-0.243-4.015
	c-0.056-1.312-0.084-2.514-0.084-3.607v-83.677h13.935v117.443h-8.194C2193.938,704.763,2192.886,704.585,2192.201,704.23z"/>
<path fill="none" stroke="#8C8A89" stroke-width="0.25" d="M2344.326,551.632c-0.679-0.355-1.46-1.079-2.334-2.17l-68.023-88.514
	c0.164,1.419,0.275,2.8,0.329,4.138s0.081,2.635,0.081,3.895v83.186h-13.935V434.72h8.033c1.257,0,2.309,0.218,3.155,0.655
	c0.848,0.437,1.682,1.173,2.5,2.213l67.94,88.43c-0.108-1.364-0.189-2.704-0.245-4.015c-0.054-1.309-0.082-2.514-0.082-3.604v-83.68
	h13.935v117.445h-8.195C2346.064,552.166,2345.012,551.987,2344.326,551.632z"/>
<path fill="none" stroke="#8C8A89" stroke-width="0.25" d="M2344.326,410.281c-0.679-0.355-1.46-1.079-2.334-2.172l-68.023-88.512
	c0.164,1.418,0.275,2.8,0.329,4.138s0.081,2.635,0.081,3.895v83.184h-13.935V293.369h8.033c1.257,0,2.309,0.218,3.155,0.655
	c0.848,0.437,1.682,1.173,2.5,2.213l67.94,88.43c-0.108-1.364-0.189-2.704-0.245-4.015c-0.054-1.309-0.082-2.514-0.082-3.604v-83.68
	h13.935v117.444h-8.195C2346.064,410.813,2345.012,410.636,2344.326,410.281z"/>
<path fill="none" stroke="#8C8A89" stroke-width="0.25" d="M2344.326,267.035c-0.679-0.356-1.46-1.08-2.334-2.171l-68.023-88.514
	c0.164,1.419,0.275,2.8,0.329,4.138s0.081,2.635,0.081,3.895v83.186h-13.935V150.122h8.033c1.257,0,2.309,0.217,3.155,0.655
	c0.848,0.437,1.682,1.174,2.5,2.215l67.94,88.43c-0.108-1.365-0.189-2.704-0.245-4.016c-0.054-1.308-0.082-2.513-0.082-3.604v-83.68
	h13.935v117.445h-8.195C2346.064,267.567,2345.012,267.389,2344.326,267.035z"/>
<path fill="none" stroke="#8C8A89" stroke-width="0.25" d="M2344.326,124.073c-0.679-0.355-1.46-1.08-2.334-2.171l-68.023-88.513
	c0.164,1.418,0.275,2.799,0.329,4.138c0.054,1.338,0.081,2.635,0.081,3.895v83.184h-13.935V7.163h8.033
	c1.257,0,2.309,0.215,3.155,0.653c0.848,0.438,1.682,1.174,2.5,2.214l67.94,88.43c-0.108-1.366-0.189-2.704-0.245-4.015
	c-0.054-1.311-0.082-2.514-0.082-3.607V7.163h13.935v117.442h-8.195C2346.064,124.605,2345.012,124.428,2344.326,124.073z"/>
<path fill="none" stroke="#8C8A89" stroke-width="0.25" d="M2344.326,1132.725c-0.679-0.357-1.46-1.08-2.334-2.172l-68.023-88.514
	c0.164,1.419,0.275,2.8,0.329,4.138s0.081,2.636,0.081,3.895v83.186h-13.935v-117.445h8.033c1.257,0,2.309,0.218,3.155,0.655
	c0.848,0.437,1.682,1.175,2.5,2.214l67.94,88.431c-0.108-1.364-0.189-2.705-0.245-4.015c-0.054-1.31-0.082-2.515-0.082-3.605v-83.68
	h13.935v117.445h-8.195C2346.064,1133.257,2345.012,1133.078,2344.326,1132.725z"/>
<path fill="none" stroke="#8C8A89" stroke-width="0.25" d="M2344.326,991.372c-0.679-0.355-1.46-1.078-2.334-2.171l-68.023-88.514
	c0.164,1.42,0.275,2.801,0.329,4.139s0.081,2.635,0.081,3.894v83.186h-13.935V874.46h8.033c1.257,0,2.309,0.218,3.155,0.656
	c0.848,0.437,1.682,1.173,2.5,2.213l67.94,88.431c-0.108-1.364-0.189-2.704-0.245-4.016c-0.054-1.309-0.082-2.514-0.082-3.604
	V874.46h13.935v117.445h-8.195C2346.064,991.905,2345.012,991.728,2344.326,991.372z"/>
<path fill="none" stroke="#8C8A89" stroke-width="0.25" d="M2344.326,848.126c-0.679-0.356-1.46-1.08-2.334-2.172l-68.023-88.513
	c0.164,1.418,0.275,2.799,0.329,4.137c0.054,1.34,0.081,2.636,0.081,3.896v83.185h-13.935V731.213h8.033
	c1.257,0,2.309,0.218,3.155,0.655c0.848,0.438,1.682,1.175,2.5,2.215l67.94,88.431c-0.108-1.365-0.189-2.704-0.245-4.017
	c-0.054-1.309-0.082-2.512-0.082-3.604v-83.68h13.935v117.445h-8.195C2346.064,848.658,2345.012,848.48,2344.326,848.126z"/>
<path fill="none" stroke="#8C8A89" stroke-width="0.25" d="M2344.326,705.164c-0.679-0.355-1.46-1.08-2.334-2.172l-68.023-88.513
	c0.164,1.418,0.275,2.801,0.329,4.139s0.081,2.635,0.081,3.894v83.185h-13.935V588.254h8.033c1.257,0,2.309,0.215,3.155,0.654
	c0.848,0.437,1.682,1.173,2.5,2.213l67.94,88.43c-0.108-1.364-0.189-2.703-0.245-4.015c-0.054-1.31-0.082-2.513-0.082-3.605v-83.677
	h13.935v117.442h-8.195C2346.064,705.696,2345.012,705.52,2344.326,705.164z"/>
<path fill="none" stroke="#8C8A89" stroke-width="0.25" d="M2477.824,550.688c-0.681-0.356-1.461-1.079-2.334-2.172l-68.024-88.512
	c0.165,1.418,0.275,2.799,0.329,4.137c0.055,1.339,0.079,2.635,0.079,3.896v83.184h-13.933V433.774h8.035
	c1.257,0,2.309,0.218,3.152,0.656c0.849,0.438,1.68,1.174,2.502,2.214l67.938,88.43c-0.105-1.365-0.189-2.704-0.243-4.015
	c-0.055-1.31-0.084-2.514-0.084-3.605v-83.68h13.935V551.22h-8.194C2479.561,551.22,2478.508,551.042,2477.824,550.688z"/>
<path fill="none" stroke="#8C8A89" stroke-width="0.25" d="M2477.824,409.336c-0.681-0.357-1.461-1.08-2.334-2.172l-68.024-88.512
	c0.165,1.418,0.275,2.799,0.329,4.137c0.055,1.339,0.079,2.635,0.079,3.896v83.184h-13.933V292.423h8.035
	c1.257,0,2.309,0.218,3.152,0.656c0.849,0.438,1.68,1.174,2.502,2.214l67.938,88.43c-0.105-1.365-0.189-2.704-0.243-4.015
	c-0.055-1.31-0.084-2.514-0.084-3.605v-83.68h13.935v117.445h-8.194C2479.561,409.869,2478.508,409.69,2477.824,409.336z"/>
<path fill="none" stroke="#8C8A89" stroke-width="0.25" d="M2477.824,266.089c-0.681-0.355-1.461-1.078-2.334-2.171l-68.024-88.512
	c0.165,1.417,0.275,2.798,0.329,4.138c0.055,1.338,0.079,2.635,0.079,3.894v83.185h-13.933V149.176h8.035
	c1.257,0,2.309,0.219,3.152,0.655c0.849,0.438,1.68,1.174,2.502,2.215l67.938,88.43c-0.105-1.365-0.189-2.704-0.243-4.016
	c-0.055-1.309-0.084-2.512-0.084-3.604v-83.68h13.935v117.445h-8.194C2479.561,266.622,2478.508,266.443,2477.824,266.089z"/>
<path fill="none" stroke="#8C8A89" stroke-width="0.25" d="M2477.824,123.128c-0.681-0.357-1.461-1.081-2.334-2.172l-68.024-88.514
	c0.165,1.419,0.275,2.8,0.329,4.138c0.055,1.338,0.079,2.635,0.079,3.894v83.186h-13.933V6.217h8.035
	c1.257,0,2.309,0.215,3.152,0.654c0.849,0.438,1.68,1.174,2.502,2.214l67.938,88.43c-0.105-1.366-0.189-2.704-0.243-4.015
	c-0.055-1.311-0.084-2.514-0.084-3.607V6.217h13.935v117.444h-8.194C2479.561,123.661,2478.508,123.482,2477.824,123.128z"/>
<path fill="none" stroke="#8C8A89" stroke-width="0.25" d="M2477.824,1131.778c-0.681-0.355-1.461-1.078-2.334-2.171l-68.024-88.513
	c0.165,1.418,0.275,2.799,0.329,4.138c0.055,1.338,0.079,2.634,0.079,3.895v83.185h-13.933v-117.445h8.035
	c1.257,0,2.309,0.219,3.152,0.655c0.849,0.438,1.68,1.174,2.502,2.215l67.938,88.43c-0.105-1.365-0.189-2.704-0.243-4.015
	c-0.055-1.31-0.084-2.514-0.084-3.605v-83.68h13.935v117.445h-8.194C2479.561,1132.312,2478.508,1132.133,2477.824,1131.778z"/>
<path fill="none" stroke="#8C8A89" stroke-width="0.25" d="M2477.824,990.428c-0.681-0.356-1.461-1.078-2.334-2.172l-68.024-88.513
	c0.165,1.418,0.275,2.799,0.329,4.137c0.055,1.339,0.079,2.636,0.079,3.896v83.185h-13.933V873.515h8.035
	c1.257,0,2.309,0.218,3.152,0.655c0.849,0.438,1.68,1.175,2.502,2.215l67.938,88.43c-0.105-1.364-0.189-2.703-0.243-4.015
	c-0.055-1.31-0.084-2.514-0.084-3.605v-83.68h13.935V990.96h-8.194C2479.561,990.96,2478.508,990.781,2477.824,990.428z"/>
<path fill="none" stroke="#8C8A89" stroke-width="0.25" d="M2477.824,847.181c-0.681-0.355-1.461-1.079-2.334-2.172l-68.024-88.513
	c0.165,1.418,0.275,2.799,0.329,4.138c0.055,1.338,0.079,2.636,0.079,3.895v83.185h-13.933V730.268h8.035
	c1.257,0,2.309,0.219,3.152,0.655c0.849,0.438,1.68,1.175,2.502,2.215l67.938,88.43c-0.105-1.363-0.189-2.704-0.243-4.016
	c-0.055-1.308-0.084-2.513-0.084-3.604v-83.681h13.935v117.445h-8.194C2479.561,847.713,2478.508,847.535,2477.824,847.181z"/>
<path fill="none" stroke="#8C8A89" stroke-width="0.25" d="M2477.824,704.22c-0.681-0.356-1.461-1.081-2.334-2.172l-68.024-88.513
	c0.165,1.418,0.275,2.799,0.329,4.137c0.055,1.34,0.079,2.636,0.079,3.896v83.185h-13.933V587.308h8.035
	c1.257,0,2.309,0.216,3.152,0.654c0.849,0.438,1.68,1.175,2.502,2.215l67.938,88.43c-0.105-1.366-0.189-2.703-0.243-4.015
	c-0.055-1.311-0.084-2.514-0.084-3.606v-83.678h13.935v117.444h-8.194C2479.561,704.752,2478.508,704.573,2477.824,704.22z"/>
<path fill="none" stroke="#8C8A89" stroke-width="0.25" d="M2629.951,551.622c-0.682-0.357-1.461-1.08-2.334-2.172l-68.027-88.514
	c0.167,1.419,0.277,2.8,0.329,4.138c0.057,1.338,0.084,2.635,0.084,3.894v83.186h-13.935V434.709h8.032
	c1.257,0,2.31,0.218,3.155,0.656c0.849,0.437,1.682,1.173,2.501,2.213l67.939,88.43c-0.108-1.363-0.189-2.704-0.244-4.013
	c-0.054-1.31-0.083-2.515-0.083-3.605v-83.68h13.937v117.445h-8.196C2631.688,552.154,2630.635,551.976,2629.951,551.622z"/>
<path fill="none" stroke="#8C8A89" stroke-width="0.25" d="M2629.951,410.27c-0.682-0.355-1.461-1.078-2.334-2.171l-68.027-88.513
	c0.167,1.418,0.277,2.8,0.329,4.138c0.057,1.338,0.084,2.635,0.084,3.894v83.185h-13.935V293.358h8.032
	c1.257,0,2.31,0.218,3.155,0.656c0.849,0.437,1.682,1.173,2.501,2.213l67.939,88.43c-0.108-1.363-0.189-2.704-0.244-4.015
	c-0.054-1.308-0.083-2.513-0.083-3.604v-83.68h13.937v117.444h-8.196C2631.688,410.802,2630.635,410.625,2629.951,410.27z"/>
<path fill="none" stroke="#8C8A89" stroke-width="0.25" d="M2629.951,267.023c-0.682-0.356-1.461-1.08-2.334-2.171l-68.027-88.514
	c0.167,1.419,0.277,2.8,0.329,4.138c0.057,1.338,0.084,2.635,0.084,3.895v83.186h-13.935V150.111h8.032
	c1.257,0,2.31,0.218,3.155,0.655c0.849,0.438,1.682,1.174,2.501,2.215l67.939,88.43c-0.108-1.365-0.189-2.704-0.244-4.016
	c-0.054-1.309-0.083-2.512-0.083-3.604v-83.68h13.937v117.445h-8.196C2631.688,267.556,2630.635,267.378,2629.951,267.023z"/>
<path fill="none" stroke="#8C8A89" stroke-width="0.25" d="M2629.951,124.062c-0.682-0.355-1.461-1.08-2.334-2.171l-68.027-88.513
	c0.167,1.418,0.277,2.799,0.329,4.138c0.057,1.338,0.084,2.635,0.084,3.894v83.185h-13.935V7.151h8.032
	c1.257,0,2.31,0.215,3.155,0.653c0.849,0.438,1.682,1.174,2.501,2.215l67.939,88.43c-0.108-1.366-0.189-2.704-0.244-4.015
	c-0.054-1.311-0.083-2.513-0.083-3.606V7.151h13.937v117.443h-8.196C2631.688,124.594,2630.635,124.417,2629.951,124.062z"/>
<path fill="none" stroke="#8C8A89" stroke-width="0.25" d="M2629.951,1132.713c-0.682-0.356-1.461-1.079-2.334-2.171l-68.027-88.514
	c0.167,1.419,0.277,2.8,0.329,4.138c0.057,1.338,0.084,2.635,0.084,3.895v83.186h-13.935v-117.445h8.032
	c1.257,0,2.31,0.217,3.155,0.655c0.849,0.437,1.682,1.174,2.501,2.215l67.939,88.43c-0.108-1.365-0.189-2.705-0.244-4.015
	c-0.054-1.31-0.083-2.515-0.083-3.605v-83.68h13.937v117.445h-8.196C2631.688,1133.246,2630.635,1133.067,2629.951,1132.713z"/>
<path fill="none" stroke="#8C8A89" stroke-width="0.25" d="M2629.951,991.362c-0.682-0.356-1.461-1.08-2.334-2.172l-68.027-88.514
	c0.167,1.419,0.277,2.8,0.329,4.138c0.057,1.338,0.084,2.636,0.084,3.895v83.186h-13.935V874.449h8.032
	c1.257,0,2.31,0.218,3.155,0.655c0.849,0.437,1.682,1.173,2.501,2.214l67.939,88.43c-0.108-1.363-0.189-2.704-0.244-4.014
	c-0.054-1.31-0.083-2.515-0.083-3.605v-83.68h13.937v117.445h-8.196C2631.688,991.895,2630.635,991.716,2629.951,991.362z"/>
<path fill="none" stroke="#8C8A89" stroke-width="0.25" d="M2629.951,848.115c-0.682-0.357-1.461-1.08-2.334-2.172l-68.027-88.513
	c0.167,1.418,0.277,2.799,0.329,4.137c0.057,1.339,0.084,2.635,0.084,3.896v83.185h-13.935V731.202h8.032
	c1.257,0,2.31,0.218,3.155,0.655c0.849,0.438,1.682,1.175,2.501,2.215l67.939,88.43c-0.108-1.364-0.189-2.704-0.244-4.016
	c-0.054-1.309-0.083-2.513-0.083-3.604v-83.68h13.937v117.445h-8.196C2631.688,848.647,2630.635,848.469,2629.951,848.115z"/>
<path fill="none" stroke="#8C8A89" stroke-width="0.25" d="M2629.951,705.153c-0.682-0.355-1.461-1.08-2.334-2.172l-68.027-88.513
	c0.167,1.418,0.277,2.8,0.329,4.138c0.057,1.338,0.084,2.636,0.084,3.895v83.185h-13.935V588.242h8.032
	c1.257,0,2.31,0.216,3.155,0.654c0.849,0.437,1.682,1.174,2.501,2.214l67.939,88.43c-0.108-1.364-0.189-2.704-0.244-4.015
	c-0.054-1.31-0.083-2.514-0.083-3.605v-83.678h13.937v117.443h-8.196C2631.688,705.686,2630.635,705.508,2629.951,705.153z"/>
<path fill="none" stroke="#8C8A89" stroke-width="0.25" d="M475.35,1420.286c-0.68-0.356-1.461-1.08-2.335-2.172l-68.025-88.514
	c0.166,1.418,0.277,2.8,0.33,4.138c0.055,1.338,0.081,2.636,0.081,3.895v83.185h-13.933v-117.444h8.032
	c1.258,0,2.311,0.218,3.156,0.655c0.847,0.437,1.68,1.174,2.5,2.214l67.94,88.43c-0.108-1.363-0.189-2.704-0.244-4.015
	c-0.056-1.309-0.083-2.514-0.083-3.604v-83.68h13.933v117.444h-8.194C477.086,1420.817,476.034,1420.641,475.35,1420.286z"/>
<path fill="none" stroke="#8C8A89" stroke-width="0.25" d="M475.35,1278.934c-0.68-0.355-1.461-1.078-2.335-2.172l-68.025-88.512
	c0.166,1.418,0.277,2.799,0.33,4.138c0.055,1.338,0.081,2.635,0.081,3.895v83.184h-13.933v-117.444h8.032
	c1.258,0,2.311,0.219,3.156,0.655c0.847,0.438,1.68,1.174,2.5,2.214l67.94,88.431c-0.108-1.364-0.189-2.704-0.244-4.015
	c-0.056-1.309-0.083-2.514-0.083-3.604v-83.681h13.933v117.444h-8.194C477.086,1279.466,476.034,1279.289,475.35,1278.934z"/>
<path fill="none" stroke="#8C8A89" stroke-width="0.25" d="M627.476,1421.219c-0.68-0.354-1.461-1.078-2.334-2.172l-68.025-88.512
	c0.165,1.418,0.276,2.799,0.33,4.137c0.056,1.339,0.082,2.635,0.082,3.896v83.185h-13.935v-117.445h8.036
	c1.255,0,2.307,0.218,3.153,0.655c0.847,0.438,1.681,1.175,2.5,2.215l67.94,88.43c-0.109-1.364-0.189-2.704-0.243-4.015
	c-0.054-1.31-0.083-2.514-0.083-3.605v-83.68h13.935v117.445h-8.195C629.213,1421.752,628.16,1421.574,627.476,1421.219z"/>
<path fill="none" stroke="#8C8A89" stroke-width="0.25" d="M627.476,1279.868c-0.68-0.356-1.461-1.079-2.334-2.172l-68.025-88.512
	c0.165,1.417,0.276,2.799,0.33,4.137c0.056,1.339,0.082,2.635,0.082,3.896v83.184h-13.935v-117.445h8.036
	c1.255,0,2.307,0.218,3.153,0.656c0.847,0.438,1.681,1.174,2.5,2.214l67.94,88.431c-0.109-1.365-0.189-2.704-0.243-4.015
	c-0.054-1.31-0.083-2.514-0.083-3.605v-83.681h13.935V1280.4h-8.195C629.213,1280.4,628.16,1280.223,627.476,1279.868z"/>
<path fill="none" stroke="#8C8A89" stroke-width="0.25" d="M760.973,1420.273c-0.68-0.356-1.462-1.077-2.334-2.171l-68.027-88.513
	c0.167,1.418,0.278,2.8,0.332,4.138c0.055,1.338,0.081,2.635,0.081,3.895v83.186H677.09v-117.445h8.033
	c1.256,0,2.311,0.218,3.155,0.655c0.848,0.437,1.68,1.173,2.5,2.214l67.94,88.43c-0.108-1.364-0.189-2.704-0.245-4.015
	c-0.053-1.309-0.083-2.514-0.083-3.604v-83.68h13.935v117.445h-8.196C762.71,1420.808,761.658,1420.628,760.973,1420.273z"/>
<path fill="none" stroke="#8C8A89" stroke-width="0.25" d="M760.973,1278.923c-0.68-0.355-1.462-1.079-2.334-2.172l-68.027-88.513
	c0.167,1.418,0.278,2.799,0.332,4.139c0.055,1.338,0.081,2.635,0.081,3.894v83.185H677.09V1162.01h8.033
	c1.256,0,2.311,0.219,3.155,0.655c0.848,0.438,1.68,1.175,2.5,2.215l67.94,88.431c-0.108-1.364-0.189-2.705-0.245-4.016
	c-0.053-1.309-0.083-2.514-0.083-3.604v-83.682h13.935v117.445h-8.196C762.71,1279.455,761.658,1279.278,760.973,1278.923z"/>
<path fill="none" stroke="#8C8A89" stroke-width="0.25" d="M913.099,1421.208c-0.681-0.356-1.46-1.079-2.334-2.171l-68.026-88.513
	c0.166,1.418,0.276,2.799,0.33,4.137c0.055,1.339,0.082,2.635,0.082,3.896v83.186h-13.935v-117.446h8.034
	c1.255,0,2.309,0.218,3.155,0.655c0.847,0.438,1.68,1.174,2.5,2.215l67.94,88.43c-0.108-1.365-0.189-2.704-0.246-4.015
	c-0.053-1.31-0.082-2.514-0.082-3.605v-83.68h13.932v117.446h-8.194C914.835,1421.742,913.783,1421.563,913.099,1421.208z"/>
<path fill="none" stroke="#8C8A89" stroke-width="0.25" d="M913.099,1279.857c-0.681-0.356-1.46-1.08-2.334-2.172l-68.026-88.513
	c0.166,1.418,0.276,2.799,0.33,4.137c0.055,1.339,0.082,2.636,0.082,3.896v83.185h-13.935v-117.445h8.034
	c1.255,0,2.309,0.218,3.155,0.655c0.847,0.438,1.68,1.175,2.5,2.215l67.94,88.43c-0.108-1.364-0.189-2.703-0.246-4.015
	c-0.053-1.31-0.082-2.513-0.082-3.605v-83.68h13.932v117.445h-8.194C914.835,1280.39,913.783,1280.211,913.099,1279.857z"/>
<path fill="none" stroke="#8C8A89" stroke-width="0.25" d="M1045.577,1420.278c-0.682-0.356-1.462-1.079-2.335-2.171l-68.025-88.514
	c0.166,1.419,0.274,2.8,0.33,4.138c0.055,1.339,0.081,2.635,0.081,3.896v83.183h-13.935v-117.443h8.034
	c1.257,0,2.31,0.218,3.155,0.655c0.845,0.438,1.68,1.174,2.5,2.215l67.939,88.43c-0.107-1.365-0.188-2.704-0.244-4.015
	c-0.054-1.31-0.083-2.514-0.083-3.605v-83.68h13.935v117.443h-8.193C1047.313,1420.81,1046.261,1420.633,1045.577,1420.278z"/>
<path fill="none" stroke="#8C8A89" stroke-width="0.25" d="M1045.577,1278.928c-0.682-0.356-1.462-1.08-2.335-2.172l-68.025-88.514
	c0.166,1.419,0.274,2.8,0.33,4.138c0.055,1.338,0.081,2.636,0.081,3.895v83.186h-13.935v-117.445h8.034
	c1.257,0,2.31,0.218,3.155,0.655c0.845,0.437,1.68,1.175,2.5,2.215l67.939,88.43c-0.107-1.364-0.188-2.703-0.244-4.015
	c-0.054-1.31-0.083-2.515-0.083-3.605v-83.68h13.935v117.445h-8.193C1047.313,1279.46,1046.261,1279.281,1045.577,1278.928z"/>
<path fill="none" stroke="#8C8A89" stroke-width="0.25" d="M1197.702,1421.213c-0.68-0.356-1.46-1.079-2.333-2.171l-68.028-88.514
	c0.166,1.417,0.278,2.8,0.332,4.138c0.056,1.338,0.081,2.635,0.081,3.895v83.184h-13.935v-117.443h8.034
	c1.256,0,2.309,0.218,3.155,0.654c0.846,0.438,1.681,1.174,2.498,2.214l67.941,88.431c-0.108-1.364-0.189-2.704-0.244-4.016
	c-0.053-1.308-0.083-2.513-0.083-3.604v-83.68h13.935v117.443h-8.195C1199.44,1421.744,1198.388,1421.567,1197.702,1421.213z"/>
<path fill="none" stroke="#8C8A89" stroke-width="0.25" d="M1197.702,1279.861c-0.68-0.355-1.46-1.079-2.333-2.172l-68.028-88.513
	c0.166,1.418,0.278,2.799,0.332,4.138c0.056,1.338,0.081,2.636,0.081,3.895v83.185h-13.935v-117.445h8.034
	c1.256,0,2.309,0.219,3.155,0.655c0.846,0.438,1.681,1.175,2.498,2.215l67.941,88.43c-0.108-1.365-0.189-2.704-0.244-4.015
	c-0.053-1.31-0.083-2.514-0.083-3.604v-83.681h13.935v117.445h-8.195C1199.44,1280.394,1198.388,1280.217,1197.702,1279.861z"/>
<path fill="none" stroke="#8C8A89" stroke-width="0.25" d="M1331.2,1420.267c-0.681-0.354-1.461-1.077-2.334-2.172l-68.026-88.511
	c0.166,1.417,0.276,2.799,0.329,4.137c0.055,1.339,0.083,2.635,0.083,3.896v83.184h-13.935v-117.445h8.033
	c1.257,0,2.31,0.218,3.155,0.656c0.847,0.438,1.681,1.174,2.5,2.214l67.939,88.431c-0.107-1.365-0.188-2.704-0.244-4.015
	c-0.055-1.311-0.082-2.514-0.082-3.605v-83.681h13.934V1420.8h-8.195C1332.936,1420.8,1331.882,1420.623,1331.2,1420.267z"/>
<path fill="none" stroke="#8C8A89" stroke-width="0.25" d="M1331.2,1278.916c-0.681-0.356-1.461-1.079-2.334-2.171l-68.026-88.514
	c0.166,1.419,0.276,2.8,0.329,4.138c0.055,1.338,0.083,2.635,0.083,3.895v83.186h-13.935v-117.445h8.033
	c1.257,0,2.31,0.218,3.155,0.655c0.847,0.437,1.681,1.175,2.5,2.215l67.939,88.43c-0.107-1.364-0.188-2.704-0.244-4.015
	c-0.055-1.31-0.082-2.515-0.082-3.605v-83.68h13.934v117.445h-8.195C1332.936,1279.449,1331.882,1279.271,1331.2,1278.916z"/>
<path fill="none" stroke="#8C8A89" stroke-width="0.25" d="M1483.326,1421.201c-0.681-0.356-1.462-1.077-2.335-2.172l-68.025-88.513
	c0.166,1.418,0.276,2.8,0.33,4.138c0.056,1.338,0.081,2.636,0.081,3.895v83.186h-13.934v-117.445h8.033
	c1.257,0,2.31,0.218,3.156,0.656c0.846,0.436,1.68,1.173,2.499,2.213l67.938,88.43c-0.106-1.363-0.188-2.703-0.242-4.015
	c-0.055-1.308-0.084-2.513-0.084-3.604v-83.68h13.935v117.445h-8.194C1485.063,1421.734,1484.009,1421.555,1483.326,1421.201z"/>
<path fill="none" stroke="#8C8A89" stroke-width="0.25" d="M1483.326,1279.85c-0.681-0.355-1.462-1.078-2.335-2.172l-68.025-88.512
	c0.166,1.418,0.276,2.799,0.33,4.138c0.056,1.338,0.081,2.635,0.081,3.895v83.185h-13.934v-117.445h8.033
	c1.257,0,2.31,0.219,3.156,0.655c0.846,0.438,1.68,1.174,2.499,2.214l67.938,88.431c-0.106-1.364-0.188-2.704-0.242-4.015
	c-0.055-1.309-0.084-2.514-0.084-3.604v-83.681h13.935v117.445h-8.194C1485.063,1280.383,1484.009,1280.205,1483.326,1279.85z"/>
<path fill="none" stroke="#8C8A89" stroke-width="0.25" d="M1627.625,1420.283c-0.68-0.356-1.461-1.079-2.334-2.171l-68.026-88.514
	c0.166,1.418,0.275,2.799,0.331,4.138c0.056,1.338,0.081,2.635,0.081,3.895v83.184h-13.935v-117.445h8.033
	c1.258,0,2.311,0.22,3.155,0.656c0.847,0.438,1.682,1.174,2.5,2.214l67.94,88.431c-0.107-1.365-0.189-2.704-0.245-4.016
	c-0.053-1.309-0.082-2.513-0.082-3.604v-83.681h13.935v117.445h-8.193C1629.361,1420.814,1628.31,1420.638,1627.625,1420.283z"/>
<path fill="none" stroke="#8C8A89" stroke-width="0.25" d="M1627.625,1278.932c-0.68-0.355-1.461-1.079-2.334-2.172l-68.026-88.513
	c0.166,1.418,0.275,2.799,0.331,4.137c0.056,1.339,0.081,2.636,0.081,3.896v83.185h-13.935v-117.445h8.033
	c1.258,0,2.311,0.218,3.155,0.655c0.847,0.438,1.682,1.175,2.5,2.215l67.94,88.43c-0.107-1.364-0.189-2.704-0.245-4.015
	c-0.053-1.31-0.082-2.514-0.082-3.605v-83.68h13.935v117.445h-8.193C1629.361,1279.464,1628.31,1279.285,1627.625,1278.932z"/>
<path fill="none" stroke="#8C8A89" stroke-width="0.25" d="M1779.752,1421.216c-0.681-0.354-1.461-1.077-2.334-2.172l-68.027-88.513
	c0.166,1.42,0.277,2.801,0.33,4.139c0.056,1.338,0.083,2.635,0.083,3.894v83.186h-13.935v-117.444h8.033
	c1.257,0,2.31,0.217,3.155,0.655c0.846,0.438,1.68,1.174,2.499,2.214l67.941,88.431c-0.108-1.365-0.189-2.704-0.246-4.015
	c-0.053-1.311-0.081-2.514-0.081-3.605v-83.68h13.933v117.444h-8.194C1781.488,1421.749,1780.436,1421.572,1779.752,1421.216z"/>
<path fill="none" stroke="#8C8A89" stroke-width="0.25" d="M1779.752,1279.866c-0.681-0.356-1.461-1.08-2.334-2.172l-68.027-88.514
	c0.166,1.419,0.277,2.8,0.33,4.138c0.056,1.338,0.083,2.635,0.083,3.895v83.186h-13.935v-117.445h8.033
	c1.257,0,2.31,0.218,3.155,0.655c0.846,0.437,1.68,1.175,2.499,2.214l67.941,88.43c-0.108-1.363-0.189-2.704-0.246-4.014
	c-0.053-1.31-0.081-2.515-0.081-3.605v-83.68h13.933v117.445h-8.194C1781.488,1280.398,1780.436,1280.22,1779.752,1279.866z"/>
<path fill="none" stroke="#8C8A89" stroke-width="0.25" d="M1913.249,1420.271c-0.681-0.356-1.461-1.08-2.335-2.172l-68.025-88.513
	c0.166,1.418,0.276,2.799,0.33,4.138c0.054,1.338,0.081,2.636,0.081,3.895v83.186h-13.934v-117.446h8.033
	c1.257,0,2.31,0.219,3.155,0.655c0.848,0.438,1.68,1.175,2.5,2.215l67.939,88.43c-0.107-1.364-0.188-2.703-0.244-4.015
	c-0.054-1.31-0.082-2.513-0.082-3.605v-83.68h13.934v117.446h-8.195C1914.985,1420.805,1913.932,1420.625,1913.249,1420.271z"/>
<path fill="none" stroke="#8C8A89" stroke-width="0.25" d="M1913.249,1278.92c-0.681-0.355-1.461-1.078-2.335-2.171l-68.025-88.513
	c0.166,1.418,0.276,2.799,0.33,4.138c0.054,1.338,0.081,2.634,0.081,3.895v83.185h-13.934v-117.445h8.033
	c1.257,0,2.31,0.219,3.155,0.655c0.848,0.438,1.68,1.174,2.5,2.215l67.939,88.43c-0.107-1.365-0.188-2.704-0.244-4.015
	c-0.054-1.31-0.082-2.514-0.082-3.605v-83.68h13.934v117.445h-8.195C1914.985,1279.453,1913.932,1279.274,1913.249,1278.92z"/>
<path fill="none" stroke="#8C8A89" stroke-width="0.25" d="M2065.375,1421.206c-0.681-0.356-1.462-1.08-2.335-2.172l-68.024-88.514
	c0.164,1.419,0.275,2.8,0.329,4.138c0.056,1.338,0.081,2.636,0.081,3.895v83.185h-13.935v-117.444h8.034
	c1.258,0,2.311,0.218,3.155,0.655c0.847,0.438,1.681,1.175,2.499,2.215l67.939,88.431c-0.105-1.365-0.188-2.705-0.242-4.016
	c-0.055-1.31-0.084-2.514-0.084-3.605v-83.68h13.935v117.444h-8.194C2067.111,1421.737,2066.058,1421.561,2065.375,1421.206z"/>
<path fill="none" stroke="#8C8A89" stroke-width="0.25" d="M2065.375,1279.854c-0.681-0.356-1.462-1.079-2.335-2.171l-68.024-88.514
	c0.164,1.419,0.275,2.8,0.329,4.138c0.056,1.338,0.081,2.635,0.081,3.894v83.186h-13.935v-117.444h8.034
	c1.258,0,2.311,0.218,3.155,0.655c0.847,0.437,1.681,1.174,2.499,2.213l67.939,88.431c-0.105-1.364-0.188-2.704-0.242-4.014
	c-0.055-1.31-0.084-2.515-0.084-3.605v-83.68h13.935v117.444h-8.194C2067.111,1280.387,2066.058,1280.209,2065.375,1279.854z"/>
<path fill="none" stroke="#8C8A89" stroke-width="0.25" d="M2197.853,1420.276c-0.681-0.356-1.461-1.08-2.335-2.172l-68.025-88.514
	c0.166,1.419,0.276,2.8,0.328,4.138c0.057,1.338,0.084,2.636,0.084,3.895v83.185h-13.935v-117.444h8.034
	c1.256,0,2.307,0.218,3.154,0.655c0.848,0.437,1.681,1.174,2.5,2.214l67.939,88.43c-0.107-1.363-0.188-2.704-0.244-4.014
	s-0.082-2.515-0.082-3.605v-83.68h13.934v117.444h-8.195C2199.59,1420.808,2198.536,1420.631,2197.853,1420.276z"/>
<path fill="none" stroke="#8C8A89" stroke-width="0.25" d="M2197.853,1278.924c-0.681-0.355-1.461-1.078-2.335-2.172l-68.025-88.512
	c0.166,1.418,0.276,2.8,0.328,4.138c0.057,1.338,0.084,2.635,0.084,3.895v83.184h-13.935v-117.443h8.034
	c1.256,0,2.307,0.218,3.154,0.655c0.848,0.437,1.681,1.173,2.5,2.213l67.939,88.431c-0.107-1.364-0.188-2.704-0.244-4.015
	c-0.056-1.309-0.082-2.514-0.082-3.604v-83.68h13.934v117.443h-8.195C2199.59,1279.456,2198.536,1279.279,2197.853,1278.924z"/>
<path fill="none" stroke="#8C8A89" stroke-width="0.25" d="M2349.977,1421.211c-0.679-0.356-1.459-1.08-2.334-2.172l-68.023-88.514
	c0.166,1.418,0.275,2.799,0.329,4.138c0.056,1.338,0.081,2.634,0.081,3.895v83.185h-13.934v-117.445h8.033
	c1.258,0,2.309,0.219,3.156,0.655c0.847,0.438,1.68,1.175,2.5,2.215l67.938,88.43c-0.106-1.364-0.188-2.704-0.243-4.015
	c-0.055-1.31-0.084-2.514-0.084-3.605v-83.68h13.935v117.445h-8.194C2351.715,1421.742,2350.662,1421.564,2349.977,1421.211z"/>
<path fill="none" stroke="#8C8A89" stroke-width="0.25" d="M2349.977,1279.858c-0.679-0.355-1.459-1.078-2.334-2.172l-68.023-88.512
	c0.166,1.417,0.275,2.798,0.329,4.136c0.056,1.34,0.081,2.636,0.081,3.896v83.184h-13.934v-117.445h8.033
	c1.258,0,2.309,0.218,3.156,0.656c0.847,0.438,1.68,1.174,2.5,2.214l67.938,88.431c-0.106-1.365-0.188-2.704-0.243-4.016
	c-0.055-1.309-0.084-2.513-0.084-3.604v-83.681h13.935v117.445h-8.194C2351.715,1280.391,2350.662,1280.213,2349.977,1279.858z"/>
<path fill="none" stroke="#8C8A89" stroke-width="0.25" d="M2483.477,1420.264c-0.682-0.354-1.461-1.077-2.334-2.172l-68.027-88.512
	c0.167,1.419,0.277,2.8,0.331,4.138c0.055,1.338,0.079,2.635,0.079,3.895v83.186h-13.932v-117.445h8.031
	c1.257,0,2.31,0.218,3.156,0.655c0.848,0.437,1.68,1.173,2.501,2.214l67.938,88.43c-0.108-1.364-0.189-2.704-0.243-4.014
	s-0.084-2.515-0.084-3.605v-83.68h13.935v117.445h-8.194C2485.213,1420.798,2484.16,1420.618,2483.477,1420.264z"/>
<path fill="none" stroke="#8C8A89" stroke-width="0.25" d="M2483.477,1278.913c-0.682-0.355-1.461-1.079-2.334-2.172l-68.027-88.513
	c0.167,1.419,0.277,2.801,0.331,4.138c0.055,1.338,0.079,2.636,0.079,3.895v83.186h-13.932v-117.445h8.031
	c1.257,0,2.31,0.218,3.156,0.655c0.848,0.438,1.68,1.174,2.501,2.214l67.938,88.43c-0.108-1.363-0.189-2.704-0.243-4.015
	c-0.054-1.309-0.084-2.514-0.084-3.604v-83.681h13.935v117.445h-8.194C2485.213,1279.446,2484.16,1279.269,2483.477,1278.913z"/>
<path fill="none" stroke="#8C8A89" stroke-width="0.25" d="M2635.603,1421.198c-0.681-0.356-1.463-1.079-2.336-2.171l-68.025-88.513
	c0.167,1.418,0.275,2.799,0.329,4.138c0.057,1.338,0.082,2.635,0.082,3.895v83.186h-13.933v-117.446h8.032
	c1.257,0,2.31,0.219,3.155,0.655c0.849,0.438,1.68,1.174,2.501,2.215l67.939,88.43c-0.108-1.365-0.189-2.704-0.244-4.015
	c-0.054-1.31-0.086-2.514-0.086-3.605v-83.68h13.938v117.446h-8.194C2637.339,1421.732,2636.286,1421.553,2635.603,1421.198z"/>
<path fill="none" stroke="#8C8A89" stroke-width="0.25" d="M2635.603,1279.848c-0.681-0.355-1.463-1.079-2.336-2.172l-68.025-88.513
	c0.167,1.418,0.275,2.799,0.329,4.137c0.057,1.339,0.082,2.636,0.082,3.896v83.185h-13.933v-117.445h8.032
	c1.257,0,2.31,0.218,3.155,0.655c0.849,0.438,1.68,1.175,2.501,2.215l67.939,88.43c-0.108-1.364-0.189-2.704-0.244-4.015
	c-0.054-1.31-0.086-2.514-0.086-3.605v-83.68h13.938v117.445h-8.194C2637.339,1280.38,2636.286,1280.201,2635.603,1279.848z"/>
<path fill="none" stroke="#8C8A89" stroke-width="0.25" d="M475.35,1560.583c-0.68-0.356-1.461-1.079-2.335-2.171l-68.025-88.514
	c0.166,1.419,0.277,2.799,0.33,4.137c0.055,1.34,0.081,2.636,0.081,3.896v83.184h-13.933V1443.67h8.032
	c1.258,0,2.311,0.219,3.156,0.656c0.847,0.438,1.68,1.173,2.5,2.213l67.94,88.431c-0.108-1.365-0.189-2.703-0.244-4.014
	c-0.056-1.312-0.083-2.514-0.083-3.605v-83.681h13.933v117.444h-8.194C477.086,1561.114,476.034,1560.938,475.35,1560.583z"/>
<path fill="none" stroke="#8C8A89" stroke-width="0.25" d="M627.476,1561.516c-0.68-0.354-1.461-1.077-2.334-2.169l-68.025-88.514
	c0.165,1.419,0.276,2.798,0.33,4.136c0.056,1.338,0.082,2.637,0.082,3.896v83.184h-13.935v-117.445h8.036
	c1.255,0,2.307,0.219,3.153,0.654c0.847,0.438,1.681,1.176,2.5,2.216l67.94,88.431c-0.109-1.365-0.189-2.705-0.243-4.017
	c-0.054-1.308-0.083-2.513-0.083-3.603v-83.682h13.935v117.445h-8.195C629.213,1562.049,628.16,1561.872,627.476,1561.516z"/>
<path fill="none" stroke="#8C8A89" stroke-width="0.25" d="M760.973,1560.571c-0.68-0.356-1.462-1.077-2.334-2.172l-68.027-88.511
	c0.167,1.416,0.278,2.799,0.332,4.137c0.055,1.338,0.081,2.634,0.081,3.895v83.185H677.09v-117.445h8.033
	c1.256,0,2.311,0.217,3.155,0.654c0.848,0.438,1.68,1.176,2.5,2.216l67.94,88.431c-0.108-1.365-0.189-2.706-0.245-4.017
	c-0.053-1.309-0.083-2.514-0.083-3.605v-83.679h13.935v117.445h-8.196C762.71,1561.104,761.658,1560.926,760.973,1560.571z"/>
<path fill="none" stroke="#8C8A89" stroke-width="0.25" d="M913.099,1561.506c-0.681-0.357-1.46-1.08-2.334-2.172l-68.026-88.514
	c0.166,1.419,0.276,2.801,0.33,4.139c0.055,1.338,0.082,2.635,0.082,3.894v83.185h-13.935v-117.443h8.034
	c1.255,0,2.309,0.217,3.155,0.654c0.847,0.438,1.68,1.174,2.5,2.214l67.94,88.43c-0.108-1.362-0.189-2.702-0.246-4.014
	c-0.053-1.309-0.082-2.513-0.082-3.605v-83.679h13.932v117.443h-8.194C914.835,1562.037,913.783,1561.859,913.099,1561.506z"/>
<path fill="none" stroke="#8C8A89" stroke-width="0.25" d="M1045.577,1560.576c-0.682-0.356-1.462-1.08-2.335-2.172l-68.025-88.514
	c0.166,1.419,0.274,2.799,0.33,4.139c0.055,1.338,0.081,2.635,0.081,3.894v83.185h-13.935v-117.445h8.034
	c1.257,0,2.31,0.219,3.155,0.656c0.845,0.438,1.68,1.174,2.5,2.214l67.939,88.43c-0.107-1.364-0.188-2.702-0.244-4.014
	c-0.054-1.311-0.083-2.513-0.083-3.605v-83.681h13.935v117.445h-8.193C1047.313,1561.107,1046.261,1560.93,1045.577,1560.576z"/>
<path fill="none" stroke="#8C8A89" stroke-width="0.25" d="M1197.702,1561.511c-0.68-0.356-1.46-1.08-2.333-2.172l-68.028-88.514
	c0.166,1.419,0.278,2.799,0.332,4.137c0.056,1.338,0.081,2.637,0.081,3.896v83.185h-13.935v-117.445h8.034
	c1.256,0,2.309,0.219,3.155,0.656c0.846,0.438,1.681,1.173,2.498,2.214l67.941,88.43c-0.108-1.365-0.189-2.703-0.244-4.014
	c-0.053-1.311-0.083-2.514-0.083-3.605v-83.681h13.935v117.445h-8.195C1199.44,1562.042,1198.388,1561.865,1197.702,1561.511z"/>
<path fill="none" stroke="#8C8A89" stroke-width="0.25" d="M1331.2,1560.563c-0.681-0.354-1.461-1.077-2.334-2.171l-68.026-88.512
	c0.166,1.417,0.276,2.799,0.329,4.137c0.055,1.338,0.083,2.637,0.083,3.896v83.185h-13.935v-117.445h8.033
	c1.257,0,2.31,0.219,3.155,0.654c0.847,0.438,1.681,1.176,2.5,2.216l67.939,88.43c-0.107-1.364-0.188-2.705-0.244-4.016
	c-0.055-1.309-0.082-2.514-0.082-3.604v-83.681h13.934v117.445h-8.195C1332.936,1561.098,1331.882,1560.92,1331.2,1560.563z"/>
<path fill="none" stroke="#8C8A89" stroke-width="0.25" d="M1483.326,1561.498c-0.681-0.356-1.462-1.079-2.335-2.172l-68.025-88.511
	c0.166,1.417,0.276,2.799,0.33,4.137c0.056,1.338,0.081,2.634,0.081,3.896v83.185h-13.934v-117.445h8.033
	c1.257,0,2.31,0.216,3.156,0.654c0.846,0.438,1.68,1.175,2.499,2.216l67.938,88.43c-0.106-1.365-0.188-2.705-0.242-4.016
	c-0.055-1.309-0.084-2.514-0.084-3.605v-83.679h13.935v117.445h-8.194C1485.063,1562.032,1484.009,1561.853,1483.326,1561.498z"/>
<path fill="none" stroke="#8C8A89" stroke-width="0.25" d="M1627.625,1560.581c-0.68-0.356-1.461-1.08-2.334-2.172l-68.026-88.514
	c0.166,1.419,0.275,2.799,0.331,4.137s0.081,2.637,0.081,3.896v83.185h-13.935v-117.445h8.033c1.258,0,2.311,0.219,3.155,0.656
	c0.847,0.436,1.682,1.173,2.5,2.214l67.94,88.43c-0.107-1.365-0.189-2.703-0.245-4.014c-0.053-1.311-0.082-2.516-0.082-3.605
	v-83.681h13.935v117.445h-8.193C1629.361,1561.112,1628.31,1560.936,1627.625,1560.581z"/>
<path fill="none" stroke="#8C8A89" stroke-width="0.25" d="M1779.752,1561.513c-0.681-0.354-1.461-1.077-2.334-2.171l-68.027-88.512
	c0.166,1.417,0.277,2.799,0.33,4.137c0.056,1.338,0.083,2.637,0.083,3.896v83.185h-13.935v-117.445h8.033
	c1.257,0,2.31,0.219,3.155,0.654c0.846,0.438,1.68,1.176,2.499,2.216l67.941,88.43c-0.108-1.364-0.189-2.705-0.246-4.016
	c-0.053-1.309-0.081-2.514-0.081-3.605v-83.679h13.933v117.445h-8.194C1781.488,1562.047,1780.436,1561.869,1779.752,1561.513z"/>
<path fill="none" stroke="#8C8A89" stroke-width="0.25" d="M1913.249,1560.568c-0.681-0.356-1.461-1.079-2.335-2.172l-68.025-88.514
	c0.166,1.42,0.276,2.802,0.33,4.14s0.081,2.634,0.081,3.894v83.187h-13.934v-117.445h8.033c1.257,0,2.31,0.216,3.155,0.654
	c0.848,0.438,1.68,1.173,2.5,2.216l67.939,88.428c-0.107-1.363-0.188-2.703-0.244-4.014c-0.054-1.309-0.082-2.514-0.082-3.605
	v-83.679h13.934v117.445h-8.195C1914.985,1561.103,1913.932,1560.923,1913.249,1560.568z"/>
<path fill="none" stroke="#8C8A89" stroke-width="0.25" d="M2065.375,1561.503c-0.681-0.356-1.462-1.079-2.335-2.171l-68.024-88.514
	c0.164,1.419,0.275,2.799,0.329,4.139c0.056,1.338,0.081,2.634,0.081,3.893v83.185h-13.935v-117.445h8.034
	c1.258,0,2.311,0.22,3.155,0.657c0.847,0.438,1.681,1.173,2.499,2.213l67.939,88.431c-0.105-1.362-0.188-2.703-0.242-4.014
	c-0.055-1.309-0.084-2.514-0.084-3.605v-83.682h13.935v117.445h-8.194C2067.111,1562.034,2066.058,1561.857,2065.375,1561.503z"/>
<path fill="none" stroke="#8C8A89" stroke-width="0.25" d="M2197.853,1560.573c-0.681-0.356-1.461-1.079-2.335-2.171l-68.025-88.514
	c0.166,1.419,0.276,2.799,0.328,4.139c0.057,1.338,0.084,2.634,0.084,3.893v83.185h-13.935v-117.445h8.034
	c1.256,0,2.307,0.22,3.154,0.657s1.681,1.173,2.5,2.213l67.939,88.431c-0.107-1.365-0.188-2.703-0.244-4.014
	c-0.056-1.312-0.082-2.514-0.082-3.605v-83.682h13.934v117.445h-8.195C2199.59,1561.104,2198.536,1560.928,2197.853,1560.573z"/>
<path fill="none" stroke="#8C8A89" stroke-width="0.25" d="M2349.977,1561.506c-0.679-0.354-1.459-1.077-2.334-2.17l-68.023-88.514
	c0.166,1.42,0.275,2.799,0.329,4.137c0.056,1.338,0.081,2.637,0.081,3.896v83.184h-13.934v-117.445h8.033
	c1.258,0,2.309,0.219,3.156,0.657c0.847,0.435,1.68,1.173,2.5,2.213l67.938,88.431c-0.106-1.365-0.188-2.705-0.243-4.014
	c-0.055-1.312-0.084-2.516-0.084-3.605v-83.682h13.935v117.445h-8.194C2351.715,1562.039,2350.662,1561.862,2349.977,1561.506z"/>
<path fill="none" stroke="#8C8A89" stroke-width="0.25" d="M2483.477,1560.562c-0.682-0.354-1.461-1.077-2.334-2.172l-68.027-88.511
	c0.167,1.416,0.277,2.798,0.331,4.136c0.055,1.338,0.079,2.634,0.079,3.896v83.185h-13.932v-117.445h8.031
	c1.257,0,2.31,0.217,3.156,0.654c0.848,0.438,1.68,1.176,2.501,2.216l67.938,88.43c-0.108-1.364-0.189-2.705-0.243-4.016
	c-0.054-1.309-0.084-2.514-0.084-3.605v-83.679h13.935v117.445h-8.194C2485.213,1561.095,2484.16,1560.915,2483.477,1560.562z"/>
<path fill="none" stroke="#8C8A89" stroke-width="0.25" d="M2635.603,1561.496c-0.681-0.357-1.463-1.08-2.336-2.172l-68.025-88.514
	c0.167,1.419,0.275,2.801,0.329,4.139c0.057,1.338,0.082,2.635,0.082,3.894v83.187h-13.933v-117.445h8.032
	c1.257,0,2.31,0.217,3.155,0.654c0.849,0.438,1.68,1.176,2.501,2.214l67.939,88.433c-0.108-1.365-0.189-2.706-0.244-4.017
	c-0.054-1.309-0.086-2.514-0.086-3.605v-83.679h13.938v117.445h-8.194C2637.339,1562.029,2636.286,1561.85,2635.603,1561.496z"/>
</svg>
