<?xml version="1.0" encoding="utf-8"?>
<!-- Generator: Adobe Illustrator 16.0.0, SVG Export Plug-In . SVG Version: 6.00 Build 0)  -->
<!DOCTYPE svg PUBLIC "-//W3C//DTD SVG 1.1//EN" "http://www.w3.org/Graphics/SVG/1.1/DTD/svg11.dtd">
<svg version="1.1" id="Layer_1" xmlns="http://www.w3.org/2000/svg" xmlns:xlink="http://www.w3.org/1999/xlink" x="0px" y="0px"
	 width="960px" height="560px" viewBox="0 0 960 560" enable-background="new 0 0 960 560" xml:space="preserve">
<g>
	<g>
		<path fill-rule="evenodd" clip-rule="evenodd" d="M517.313,389.753c5.008,0,9.766,0,14.506,0c0-5.323,0-10.444,0-15.673
			c-4.889,0-9.643,0-14.506,0C517.313,379.348,517.313,384.473,517.313,389.753z"/>
	</g>
	<path fill="#211915" d="M514.469,292.726l-39.189-42.11c-4.21,0.654-9.141,0.977-14.789,0.977h-39.12v33.529h-3.608V187.33h42.729
		c15.51,0,27.646,2.82,36.419,8.452c8.775,5.636,13.166,13.529,13.166,23.676c0,7.828-2.709,14.371-8.117,19.634
		c-5.404,5.261-13.043,8.872-22.897,10.823l38.25,42.05L514.469,292.726z M460.856,248.936c14.66,0,25.929-2.557,33.8-7.679
		c7.875-5.117,11.811-12.385,11.811-21.799c0-9.406-3.936-16.67-11.811-21.787c-7.871-5.124-19.14-7.686-33.8-7.686h-39.485v58.951
		H460.856z"/>
	<path fill="#211915" d="M606.563,291.965v97.788h-2.848l-89.246-97.027l2.844-0.761l85.902,92.619v-92.619H606.563z"/>
	<path fill="#211915" d="M294.295,195.68c8.633,5.569,12.945,13.372,12.945,23.399c0,10.03-4.312,17.831-12.945,23.402
		c-8.631,5.569-20.572,8.35-35.825,8.35h-38.484v33.131h-3.546V187.33h42.03C273.724,187.33,285.665,190.113,294.295,195.68z
		 M292.079,240.615c7.741-5.06,11.615-12.239,11.615-21.536c0-9.292-3.874-16.474-11.615-21.533
		c-7.744-5.06-18.827-7.595-33.25-7.595h-38.842v58.256h38.842C273.251,248.208,284.335,245.678,292.079,240.615z"/>
	<path fill="#211915" d="M409.191,282.864v2.654h-91.63V187.73h88.68v2.657h-84.754v44.143h75.907v2.657h-75.907v45.678H409.191z"/>
	<path fill="#211915" d="M334.107,385.906c-8.355-2.558-14.767-5.89-19.258-9.987l2.62-1.814c4.236,3.726,10.283,6.824,18.131,9.287
		c7.851,2.47,16.195,3.707,25.045,3.707c13.583,0,23.832-2.025,30.753-6.078c6.913-4.056,10.37-9.294,10.37-15.716
		c0-5.032-1.809-9.033-5.42-12.018c-3.613-2.978-8.071-5.214-13.37-6.705c-5.296-1.491-12.423-3.029-21.396-4.612
		c-9.6-1.767-17.196-3.464-22.806-5.095c-5.606-1.627-10.373-4.143-14.297-7.542c-3.921-3.402-5.89-7.939-5.89-13.621
		c0-4.473,1.559-8.573,4.677-12.298c3.109-3.721,7.968-6.703,14.578-8.939c6.603-2.236,14.764-3.353,24.482-3.353
		c6.979,0,13.835,0.82,20.563,2.448c6.731,1.628,12.524,3.792,17.383,6.493l-2.053,2.234c-5.114-2.793-10.817-4.91-17.104-6.356
		c-6.298-1.441-12.495-2.167-18.602-2.167c-13.076,0-23.052,2.077-29.905,6.217c-6.856,4.15-10.278,9.434-10.278,15.86
		c0,5.024,1.804,9.053,5.423,12.082c3.61,3.024,8.094,5.289,13.456,6.772c5.358,1.498,12.58,3.074,21.681,4.749
		c9.468,1.774,17.013,3.474,22.619,5.102c5.604,1.628,10.34,4.098,14.202,7.405c3.859,3.303,5.793,7.754,5.793,13.343
		c0,4.471-1.618,8.568-4.854,12.296c-3.243,3.723-8.198,6.686-14.861,8.872c-6.672,2.18-14.989,3.28-24.957,3.28
		C351.366,389.753,342.454,388.476,334.107,385.906z"/>
	<path fill="#211915" d="M436.542,383.321c-7.428-4.279-13.263-10.169-17.52-17.669c-4.254-7.495-6.384-15.901-6.384-25.219
		c0-9.309,2.13-17.716,6.384-25.211c4.257-7.497,10.092-13.387,17.52-17.677c7.421-4.279,15.709-6.424,24.852-6.424
		c9.145,0,17.433,2.145,24.855,6.424c7.424,4.29,13.266,10.18,17.521,17.677c4.252,7.495,6.381,15.902,6.381,25.211
		c0,9.317-2.129,17.724-6.381,25.219c-4.256,7.5-10.098,13.39-17.521,17.669c-7.422,4.285-15.71,6.432-24.855,6.432
		C452.25,389.753,443.962,387.606,436.542,383.321z M484.824,381.021c7.014-4.056,12.541-9.637,16.568-16.767
		c4.029-7.122,6.045-15.063,6.045-23.82c0-8.752-2.016-16.694-6.045-23.819c-4.027-7.119-9.555-12.711-16.568-16.76
		c-7.02-4.05-14.833-6.08-23.431-6.08c-8.602,0-16.406,2.03-23.422,6.08c-7.021,4.049-12.543,9.641-16.573,16.76
		c-4.031,7.125-6.044,15.067-6.044,23.819c0,8.758,2.013,16.698,6.044,23.82c4.03,7.13,9.553,12.711,16.573,16.767
		c7.016,4.053,14.82,6.078,23.422,6.078C469.992,387.099,477.804,385.073,484.824,381.021z"/>
	<path fill="#211915" d="M690.941,360.275h-59.789l-13.695,29.478h-3.211l45.402-97.785h2.795l45.396,97.785h-3.209L690.941,360.275
		z M689.682,357.621l-28.635-61.884l-28.643,61.884H689.682z"/>
</g>
</svg>
