<?xml version="1.0" encoding="utf-8"?>
<!-- Generator: Adobe Illustrator 16.0.0, SVG Export Plug-In . SVG Version: 6.00 Build 0)  -->
<!DOCTYPE svg PUBLIC "-//W3C//DTD SVG 1.1//EN" "http://www.w3.org/Graphics/SVG/1.1/DTD/svg11.dtd">
<svg version="1.1" id="Layer_1" xmlns="http://www.w3.org/2000/svg" xmlns:xlink="http://www.w3.org/1999/xlink" x="0px" y="0px"
	 width="640px" height="480px" viewBox="0 0 640 480" enable-background="new 0 0 640 480" xml:space="preserve">
<g>
	<g>
		<path fill-rule="evenodd" clip-rule="evenodd" stroke="#000000" stroke-miterlimit="10" d="M324.953,257.879
			c2.355,0,4.595,0,6.824,0c0-2.603,0-5.105,0-7.662c-2.3,0-4.536,0-6.824,0C324.953,252.793,324.953,255.297,324.953,257.879z"/>
	</g>
	<path fill="#3D80A3" stroke="#000000" stroke-miterlimit="10" d="M324.581,227.332l-11.408-12.737
		c-1.226,0.198-2.66,0.295-4.305,0.295h-11.389v10.141h-1.051v-29.578h12.439c4.515,0,8.048,0.853,10.602,2.556
		c2.555,1.705,3.833,4.092,3.833,7.161c0,2.368-0.788,4.347-2.363,5.939c-1.573,1.591-3.797,2.683-6.666,3.273l11.136,12.719
		L324.581,227.332z M308.974,214.086c4.269,0,7.549-0.773,9.84-2.322c2.293-1.548,3.438-3.747,3.438-6.594
		c0-2.845-1.146-5.042-3.438-6.59c-2.291-1.55-5.571-2.325-9.84-2.325h-11.494v17.831H308.974z"/>
	<path fill="#3D80A3" stroke="#000000" stroke-miterlimit="10" d="M351.391,227.102v29.577h-0.829l-25.98-29.347l0.828-0.23
		l25.007,28.014v-28.014H351.391z"/>
	<path fill="#3D80A3" stroke="#000000" stroke-miterlimit="10" d="M260.487,197.979c2.513,1.685,3.768,4.045,3.768,7.078
		c0,3.034-1.255,5.393-3.768,7.078c-2.513,1.685-5.988,2.526-10.429,2.526h-11.204v10.021h-1.031v-29.228h12.235
		C254.499,195.453,257.975,196.295,260.487,197.979z M259.842,211.57c2.253-1.53,3.382-3.702,3.382-6.514
		c0-2.811-1.129-4.982-3.382-6.513c-2.255-1.53-5.48-2.297-9.679-2.297h-11.309v17.62h11.309
		C254.361,213.866,257.587,213.101,259.842,211.57z"/>
	<path fill="#3D80A3" stroke="#000000" stroke-miterlimit="10" d="M293.935,224.349v0.803H267.26v-29.577h25.815v0.803h-24.672
		v13.352H290.5v0.804h-22.097v13.816H293.935z"/>
	<path fill="#3D80A3" stroke="#000000" stroke-miterlimit="10" d="M272.076,256.459c-2.432-0.773-4.299-1.781-5.605-3.021
		l0.763-0.549c1.233,1.127,2.993,2.063,5.278,2.81s4.714,1.121,7.29,1.121c3.954,0,6.938-0.613,8.953-1.839
		c2.012-1.227,3.019-2.812,3.019-4.753c0-1.522-0.527-2.732-1.578-3.635c-1.052-0.9-2.35-1.578-3.892-2.028
		c-1.542-0.451-3.616-0.917-6.229-1.396c-2.794-0.534-5.006-1.047-6.639-1.541c-1.632-0.492-3.02-1.252-4.161-2.281
		c-1.143-1.029-1.715-2.402-1.715-4.12c0-1.353,0.453-2.593,1.361-3.72c0.905-1.125,2.319-2.027,4.244-2.704
		c1.922-0.677,4.298-1.014,7.127-1.014c2.031,0,4.027,0.248,5.985,0.74c1.96,0.493,3.646,1.147,5.061,1.964l-0.598,0.676
		c-1.489-0.845-3.149-1.485-4.979-1.923c-1.833-0.436-3.637-0.655-5.415-0.655c-3.806,0-6.711,0.628-8.705,1.88
		c-1.996,1.255-2.993,2.854-2.993,4.797c0,1.52,0.525,2.738,1.579,3.654c1.052,0.915,2.356,1.6,3.917,2.048
		c1.561,0.453,3.662,0.93,6.312,1.438c2.756,0.536,4.952,1.051,6.585,1.543c1.631,0.492,3.011,1.238,4.134,2.239
		c1.124,0.999,1.687,2.345,1.687,4.036c0,1.352-0.471,2.592-1.412,3.719c-0.944,1.126-2.387,2.021-4.326,2.684
		c-1.943,0.659-4.364,0.992-7.266,0.992C277.101,257.623,274.506,257.236,272.076,256.459z"/>
	<path fill="#3D80A3" stroke="#000000" stroke-miterlimit="10" d="M301.896,255.678c-2.162-1.295-3.861-3.076-5.101-5.344
		c-1.238-2.268-1.858-4.811-1.858-7.629c0-2.815,0.62-5.358,1.858-7.625c1.239-2.268,2.938-4.049,5.101-5.347
		c2.16-1.294,4.572-1.943,7.233-1.943c2.663,0,5.075,0.649,7.236,1.943c2.161,1.297,3.861,3.079,5.101,5.347
		c1.237,2.267,1.857,4.81,1.857,7.625c0,2.818-0.62,5.361-1.857,7.629c-1.239,2.268-2.939,4.049-5.101,5.344
		c-2.161,1.296-4.573,1.945-7.236,1.945C306.469,257.623,304.057,256.974,301.896,255.678z M315.951,254.981
		c2.042-1.227,3.651-2.915,4.823-5.071c1.173-2.154,1.76-4.556,1.76-7.205c0-2.646-0.587-5.049-1.76-7.204
		c-1.172-2.153-2.781-3.845-4.823-5.069c-2.043-1.226-4.317-1.839-6.821-1.839c-2.503,0-4.775,0.614-6.817,1.839
		c-2.044,1.224-3.651,2.916-4.824,5.069c-1.175,2.155-1.76,4.558-1.76,7.204c0,2.649,0.585,5.051,1.76,7.205
		c1.173,2.156,2.78,3.845,4.824,5.071c2.042,1.226,4.314,1.839,6.817,1.839C311.634,256.82,313.908,256.207,315.951,254.981z"/>
	<path fill="#3D80A3" stroke="#000000" stroke-miterlimit="10" d="M375.953,247.762h-17.404l-3.987,8.916h-0.935l13.218-29.576
		h0.813l13.215,29.576h-0.935L375.953,247.762z M375.587,246.959l-8.335-18.717l-8.338,18.717H375.587z"/>
</g>
</svg>
