<?xml version="1.0" encoding="utf-8"?>
<!-- Generator: Adobe Illustrator 16.0.0, SVG Export Plug-In . SVG Version: 6.00 Build 0)  -->
<!DOCTYPE svg PUBLIC "-//W3C//DTD SVG 1.1//EN" "http://www.w3.org/Graphics/SVG/1.1/DTD/svg11.dtd">
<svg version="1.1" id="Layer_1" xmlns="http://www.w3.org/2000/svg" xmlns:xlink="http://www.w3.org/1999/xlink" x="0px" y="0px"
	 width="1047px" height="963.213px" viewBox="0 0 1047 963.213" enable-background="new 0 0 1047 963.213" xml:space="preserve">
<path fill="#C6C6C6" d="M111.135,682.583c8.96,0,15.674-1.176,20.164-3.525c4.477-2.356,8.619-6.214,12.428-11.594L268.75,495.391
	c5.597-9.196,14.334-13.784,26.219-13.784h57.796L212.296,672.844c-6.283,8.952-13.45,15.793-21.513,20.497
	c18.588,4.252,35.229,10.531,49.9,18.815c14.68,8.295,27.108,18.327,37.306,30.083c10.196,11.762,17.987,25.033,23.36,39.83
	c5.373,14.78,8.07,30.694,8.07,47.724c0,20.38-3.477,38.813-10.42,55.279s-17.641,30.524-32.098,42.174
	c-14.451,11.653-32.773,20.557-54.947,26.729c-22.18,6.152-48.522,9.238-78.988,9.238H-3.137V481.606h64.858v200.977H111.135z
	 M61.722,911.791h71.245c37.423,0,65.603-7.285,84.535-21.847c18.936-14.567,28.401-36.186,28.401-64.857
	c0-14.117-2.467-27.011-7.403-38.65c-4.92-11.652-12.26-21.684-22.012-30.085c-9.746-8.404-21.847-14.904-36.291-19.49
	c-14.45-4.599-31.209-6.89-50.246-6.89H61.722V911.791z"/>
<path fill="#C6C6C6" d="M61.722,280.63v200.977H-3.137V0h136.104c30.466,0,56.809,3.086,78.988,9.238
	c22.174,6.172,40.496,15.076,54.947,26.729c14.457,11.65,25.155,25.708,32.099,42.175c6.943,16.466,10.419,34.899,10.419,55.279
	c0,17.03-2.698,32.944-8.07,47.724c-5.374,14.797-13.164,28.068-23.361,39.83c-10.197,11.756-22.626,21.788-37.306,30.083
	c-14.672,8.284-31.313,14.563-49.9,18.815c8.063,4.704,15.229,11.545,21.513,20.497l140.469,191.237h-57.795
	c-11.885,0-20.623-4.588-26.219-13.784L143.727,295.749c-3.809-5.38-7.952-9.237-12.428-11.594
	c-4.491-2.35-11.204-3.525-20.164-3.525H61.722z M61.722,233.241h68.229c19.038,0,35.796-2.291,50.247-6.89
	c14.444-4.586,26.544-11.085,36.291-19.49c9.751-8.402,17.092-18.433,22.012-30.085c4.936-11.64,7.403-24.533,7.403-38.65
	c0-28.672-9.466-50.29-28.401-64.857c-18.933-14.562-47.112-21.847-84.535-21.847H61.722V233.241z"/>
</svg>
